<svg width="800" height="600" xmlns="http://www.w3.org/2000/svg">
 <g id="Layer_1">
  <title>Layer 1</title>
  <g transform="rotate(-14.8754 60.6276 62.3333)" stroke="null">
   <g stroke="null">
    <g stroke="null">
     <ellipse stroke="null" fill="#FFB562" transform="matrix(0.545126 -0.540719 0.545126 0.540719 -0.551805 26.8512)" ry="6.6" rx="6.6" cy="63.59433" cx="-8.94217" class="st0"/>
     <ellipse stroke="null" fill="#FFB562" transform="matrix(0.750272 -0.175728 0.17716 0.744206 21.2398 21.4126)" ry="6.6" rx="6.6" cy="78.26809" cx="77.28338" class="st0"/>
    </g>
    <g stroke="null">
     <path stroke="null" fill="#FFB562" d="m89.24078,56.82745l-4.31722,0c0,-12.9999 -10.63887,-23.55275 -23.74472,-23.55275c-13.10585,0 -23.74472,10.55286 -23.74472,23.55275l-4.31722,0c0,-15.37046 12.5662,-27.83507 28.06194,-27.83507s28.06194,12.46461 28.06194,27.83507z" class="st0"/>
    </g>
    <g stroke="null">
     <path stroke="null" fill="#3F3F3F" d="m68.34851,93.99186c-1.85024,0 -3.08373,-0.07647 -3.23792,-0.07647l0.15419,-1.68234c0.15419,0 17.65435,1.29999 19.73587,-5.88819c2.3128,-7.95288 1.1564,-16.36457 1.1564,-16.44104l1.69605,-0.22941c0.07709,0.30588 1.23349,8.79405 -1.23349,17.12927c-1.92733,6.34701 -12.72039,7.18818 -18.2711,7.18818z" class="st1"/>
    </g>
    <path stroke="null" fill="#F87474" d="m69.11944,95.6742l-7.78642,0c-0.69384,0 -1.23349,-0.53529 -1.23349,-1.22352l0,-3.0588c0,-0.68823 0.53965,-1.22352 1.23349,-1.22352l7.78642,0c0.69384,0 1.23349,0.53529 1.23349,1.22352l0,3.0588c0,0.68823 -0.53965,1.22352 -1.23349,1.22352z" class="st2"/>
    <path stroke="null" fill="#3AB0FF" d="m74.36178,71.96851l-13.18295,0l-9.55956,5.65878c-0.38547,0.22941 -0.84803,-0.15294 -0.77093,-0.53529l1.38768,-5.12349l-4.24013,0c-1.1564,0 -2.15861,-0.99411 -2.15861,-2.14116l0,-16.36457c0,-1.14705 1.00221,-2.14116 2.15861,-2.14116l26.2888,0c1.1564,0 2.15861,0.99411 2.15861,2.14116l0,16.44104c0.07709,1.14705 -0.92512,2.06469 -2.08152,2.06469z" class="st3"/>
    <g stroke="null">
     <path stroke="null" fill="#FFFFFF" d="m61.17884,60.03919c-0.92512,0 -1.61896,0.7647 -1.61896,1.60587s0.77093,1.60587 1.61896,1.60587c0.92512,0 1.61896,-0.7647 1.61896,-1.60587s-0.69384,-1.60587 -1.61896,-1.60587z" class="st4"/>
     <path stroke="null" fill="#FFFFFF" d="m54.54882,60.03919c-0.92512,0 -1.61896,0.7647 -1.61896,1.60587s0.77093,1.60587 1.61896,1.60587c0.92512,0 1.61896,-0.7647 1.61896,-1.60587s-0.69384,-1.60587 -1.61896,-1.60587z" class="st4"/>
     <path stroke="null" fill="#FFFFFF" d="m67.80886,60.03919c-0.92512,0 -1.61896,0.7647 -1.61896,1.60587s0.77093,1.60587 1.61896,1.60587c0.92512,0 1.61896,-0.7647 1.61896,-1.60587s-0.69384,-1.60587 -1.61896,-1.60587z" class="st4"/>
    </g>
    <g stroke="null">
     <path stroke="null" fill="#F87474" d="m37.74249,55.37452l-6.78421,0c-2.08152,0 -3.77757,1.68234 -3.77757,3.74703l0,14.98812c0,2.06469 1.69605,3.74703 3.77757,3.74703l6.78421,0c1.46477,0 2.62117,-1.14705 2.62117,-2.59998l0,-17.35868c-0.07709,-1.37646 -1.23349,-2.52351 -2.62117,-2.52351z" class="st2"/>
     <path stroke="null" fill="#F87474" d="m91.39939,55.37452l-6.78421,0c-1.46477,0 -2.62117,1.14705 -2.62117,2.59998l0,17.28221c0,1.45293 1.1564,2.59998 2.62117,2.59998l6.78421,0c2.08152,0 3.77757,-1.68234 3.77757,-3.74703l0,-15.06459c0,-2.06469 -1.69605,-3.67056 -3.77757,-3.67056z" class="st2"/>
    </g>
   </g>
  </g>
  <g transform="rotate(7.24718 692.5 378)" stroke="null">
   <g stroke="null">
    <g stroke="null">
     <g stroke="null">
      <path stroke="null" fill="#448FFC" d="m712.08569,353.54627l-2.88969,0l0,8.38843l2.88969,0c1.60538,0 2.99672,-0.94252 2.99672,-2.1678l0,-4.14709c0,-1.13102 -1.28431,-2.07355 -2.99672,-2.07355z" class="st0"/>
      <path stroke="null" fill="#448FFC" d="m669.81057,355.61981l0,4.14709c0,1.13102 1.28431,2.1678 2.99672,2.1678l2.88969,0l0,-8.38843l-2.88969,0c-1.71241,0 -2.99672,0.94252 -2.99672,2.07355z" class="st0"/>
     </g>
     <path stroke="null" fill="#F99653" d="m730.60112,418.20317l-76.30927,0l0,-27.05034c0,-4.33559 3.53185,-8.19993 8.7761,-9.61371l21.94025,-5.84363c4.92318,-1.31953 10.06041,-1.31953 14.76954,0l21.94025,5.84363c5.24426,1.41378 8.7761,5.27811 8.7761,9.61371l0.10703,27.05034l0,0z" class="st1"/>
     <rect stroke="null" fill="#FFD551" y="394.92292" x="697.5302" width="12.73605" height="2.45055" class="st2"/>
     <rect stroke="null" fill="#EDBF9A" y="363.91399" x="684.36605" width="16.16087" height="19.79293" class="st3"/>
     <path stroke="null" fill="#FFD9B6" d="m710.80138,354.11178c0,10.93324 -8.24097,22.05498 -18.30138,22.05498s-18.40841,-11.21599 -18.40841,-22.05498s8.24097,-17.53088 18.40841,-17.53088s18.30138,6.59764 18.30138,17.53088z" class="st4"/>
     <g stroke="null">
      <path stroke="null" fill="#E08344" d="m671.84405,398.59875l-0.53513,0c-0.53513,0 -1.07026,0.37701 -1.07026,0.94252l0,18.56765l2.78267,0l0,-18.4734c-0.10703,-0.56551 -0.64215,-1.03677 -1.17728,-1.03677z" class="st5"/>
      <path stroke="null" fill="#E08344" d="m713.69107,398.59875l-0.53513,0c-0.53513,0 -1.07026,0.37701 -1.07026,0.94252l0,18.56765l2.78267,0l0,-18.4734c-0.10703,-0.56551 -0.53513,-1.03677 -1.17728,-1.03677z" class="st5"/>
      <polygon stroke="null" fill="#E08344" points="700.5269775390625,377.1092834472656 692.5,383.5184020996094 684.3660888671875,377.1092834472656 683.1887817382812,376.166748046875 674.6267700195312,378.42877197265625 687.36279296875,388.6080017089844 692.5,383.7069091796875 697.5302734375,388.6080017089844 710.373291015625,378.42877197265625 701.7042846679688,376.166748046875 " class="st5"/>
     </g>
     <g stroke="null">
      <path stroke="null" fill="#448FFC" d="m699.77774,368.8151c-1.28431,0 -1.60538,0 -3.21077,-0.09425l-1.60538,0l0,-1.13102l1.60538,0c7.38477,0.1885 9.84636,0.28276 12.0939,-1.41378c2.35456,-1.69654 1.92646,-6.03213 1.92646,-6.12638l1.28431,-0.09425c0,0.1885 0.53513,4.99536 -2.35456,7.0689c-2.14051,1.60228 -4.92318,1.79079 -9.73933,1.79079z" class="st0"/>
     </g>
     <path stroke="null" fill="#F99653" d="m697.95831,370.13463l-4.38805,0c-0.64215,0 -1.17728,-0.47126 -1.17728,-1.03677l0,-1.41378c0,-0.56551 0.53513,-1.03677 1.17728,-1.03677l4.38805,0c0.64215,0 1.17728,0.47126 1.17728,1.03677l0,1.41378c0.10703,0.47126 -0.4281,1.03677 -1.17728,1.03677z" class="st1"/>
     <path stroke="null" fill="#3F3F3F" d="m710.80138,343.74405c0,-4.99536 -2.88969,-5.18386 -2.88969,-5.18386l-4.49508,-0.47126c-0.85621,-0.09425 -1.49836,-0.65976 -1.60538,-1.41378c-0.53513,-2.54481 -2.67564,-2.26205 -2.67564,-2.26205s-14.87656,0 -19.58569,1.60228c-5.45831,1.88504 -6.74261,5.18386 -6.74261,7.91717c0,5.56087 1.60538,15.55159 2.56862,17.81364c0.21405,0.47126 1.17728,0.37701 1.17728,-0.1885l0,-7.44591c0,-0.47126 0.4281,-0.84827 0.96323,-0.84827l20.76297,0c0.53513,0 0.96323,-0.37701 0.96323,-0.84827l0,-1.79079c0,-0.47126 0.4281,-0.84827 0.96323,-0.84827s0.85621,0.37701 0.85621,0.84827l0,1.79079c0,0.47126 0.4281,0.84827 0.96323,0.84827l5.35128,0c0.53513,0 0.96323,0.37701 0.96323,0.84827l0,7.16316c0,0.56551 1.17728,0.56551 1.39133,0.09425c0.74918,-2.3563 1.17728,-4.7126 1.17728,-7.16316c0,-1.03677 -0.10703,-7.54016 -0.10703,-10.46198z" class="st6"/>
    </g>
    <path stroke="null" fill="#EFEEED" d="m663.06795,386.72299l58.75707,0c2.03349,0 3.63887,1.50803 3.42482,3.29882l-2.14051,29.21814l-61.21866,0l-2.14051,-29.21814c-0.21405,-1.79079 1.28431,-3.29882 3.31779,-3.29882z" class="st7"/>
    <g stroke="null">
     <path stroke="null" fill="#80B2F9" d="m696.35292,411.88829c0,-1.50803 -1.07026,-2.73331 -2.56862,-3.20457l0,2.63906c0,0.56551 -0.4281,1.13102 -1.17728,1.13102c-0.74918,0.09425 -1.49836,-0.47126 -1.49836,-1.13102l0,-2.63906c-1.60538,0.47126 -2.67564,1.88504 -2.56862,3.48733c0.10703,1.31953 1.17728,2.45055 2.56862,2.92181l0,3.48733l2.56862,0l0,-3.48733c1.60538,-0.37701 2.67564,-1.69654 2.67564,-3.20457z" class="st8"/>
     <path stroke="null" fill="#80B2F9" d="m703.73769,414.6216l2.56862,0l0,-5.08961l-2.56862,0c-0.32108,-0.94252 -0.64215,-1.88504 -1.28431,-2.63906l1.81944,-1.60228l-4.06697,-3.67583l-1.81944,1.60228c-0.96323,-0.47126 -1.92646,-0.84827 -2.99672,-1.13102l0,-2.26205l-5.77938,0l0,2.26205c-1.07026,0.28276 -2.03349,0.56551 -2.99672,1.13102l-1.81944,-1.60228l-4.06697,3.58158l1.81944,1.60228c-0.53513,0.84827 -0.96323,1.69654 -1.28431,2.63906l-2.56862,0l0,5.08961l2.56862,0c0.21405,0.84827 0.64215,1.60228 1.07026,2.3563c0,0.09425 0.10703,0.1885 0.21405,0.28276l-1.81944,1.60228l3.10374,2.73331l1.92646,0l0.85621,-0.75402c0.53513,0.28276 1.17728,0.56551 1.71241,0.75402l8.348,0c0.64215,-0.1885 1.17728,-0.47126 1.71241,-0.75402l0.85621,0.75402l1.92646,0l3.21077,-2.73331l-1.81944,-1.60228c0.10703,-0.09425 0.10703,-0.1885 0.21405,-0.37701c0.4281,-0.65976 0.74918,-1.41378 0.96323,-2.1678zm-9.95338,2.92181c-0.4281,0.09425 -0.85621,0.09425 -1.28431,0.09425c-0.4281,0 -0.85621,0 -1.28431,-0.09425c-0.64215,-0.09425 -1.28431,-0.37701 -1.92646,-0.65976c-1.92646,-0.94252 -3.21077,-2.82756 -3.21077,-4.90111c0,-3.11032 2.88969,-5.65512 6.42154,-5.65512s6.42154,2.54481 6.42154,5.65512c0,2.07355 -1.28431,3.86433 -3.21077,4.90111c-0.53513,0.28276 -1.28431,0.56551 -1.92646,0.65976z" class="st8"/>
    </g>
    <path stroke="null" fill="#448FFC" d="m736.70158,419.23995c0,0.65976 -0.32108,1.22528 -0.74918,1.69654c-0.4281,0.47126 -1.17728,0.65976 -1.92646,0.65976l-83.05189,0c-1.49836,0 -2.67564,-1.03677 -2.67564,-2.3563c0,-0.65976 0.32108,-1.22528 0.74918,-1.69654c0.4281,-0.47126 1.17728,-0.65976 1.92646,-0.65976l83.05189,0c1.49836,0 2.67564,1.03677 2.67564,2.3563z" class="st0"/>
   </g>
  </g>
  <g stroke="null">
   <g stroke="null">
    <g stroke="null">
     <ellipse stroke="null" fill="#FFB562" transform="matrix(0.502233 -0.504376 0.502233 0.504376 11.5404 122.533)" ry="6.6" rx="6.6" cy="272.28988" cx="-190.57048" class="st0"/>
     <ellipse stroke="null" fill="#FFB562" transform="matrix(0.691236 -0.163917 0.16322 0.694186 31.6174 117.459)" ry="6.6" rx="6.6" cy="351.28768" cx="32.48205" class="st0"/>
    </g>
    <g stroke="null">
     <path stroke="null" fill="#FFB562" d="m107.86174,347.36422l-3.97752,0c0,-12.12615 -9.80175,-21.96973 -21.87637,-21.96973c-12.07462,0 -21.87637,9.84358 -21.87637,21.96973l-3.97752,0c0,-14.33739 11.57743,-25.96422 25.85389,-25.96422s25.85389,11.62684 25.85389,25.96422z" class="st0"/>
    </g>
    <g stroke="null">
     <path stroke="null" fill="#3F3F3F" d="m88.61337,382.03074c-1.70465,0 -2.84109,-0.07133 -2.98314,-0.07133l0.14205,-1.56927c0.14205,0 16.26522,1.21261 18.18296,-5.49243c2.13082,-7.41835 1.06541,-15.26468 1.06541,-15.33601l1.5626,-0.21399c0.07103,0.28532 1.13643,8.20298 -1.13643,15.97798c-1.77568,5.92041 -11.71948,6.70505 -16.83344,6.70505z" class="st1"/>
    </g>
    <path stroke="null" fill="#F87474" d="m89.32364,383.6l-7.17374,0c-0.63924,0 -1.13643,-0.49931 -1.13643,-1.14128l0,-2.85321c0,-0.64197 0.49719,-1.14128 1.13643,-1.14128l7.17374,0c0.63924,0 1.13643,0.49931 1.13643,1.14128l0,2.85321c0,0.64197 -0.49719,1.14128 -1.13643,1.14128z" class="st2"/>
    <path stroke="null" fill="#3AB0FF" d="m94.15349,361.48762l-12.14565,0l-8.80737,5.27844c-0.35514,0.21399 -0.7813,-0.14266 -0.71027,-0.49931l1.27849,-4.77913l-3.90649,0c-1.06541,0 -1.98876,-0.92729 -1.98876,-1.99725l0,-15.26468c0,-1.06995 0.92335,-1.99725 1.98876,-1.99725l24.22027,0c1.06541,0 1.98876,0.92729 1.98876,1.99725l0,15.33601c0.07103,1.06995 -0.85233,1.92592 -1.91773,1.92592z" class="st3"/>
    <g stroke="null">
     <path stroke="null" fill="#FFFFFF" d="m82.00785,350.36009c-0.85233,0 -1.49157,0.7133 -1.49157,1.49794s0.71027,1.49794 1.49157,1.49794c0.85233,0 1.49157,-0.7133 1.49157,-1.49794s-0.63924,-1.49794 -1.49157,-1.49794z" class="st4"/>
     <path stroke="null" fill="#FFFFFF" d="m75.89951,350.36009c-0.85233,0 -1.49157,0.7133 -1.49157,1.49794s0.71027,1.49794 1.49157,1.49794c0.85233,0 1.49157,-0.7133 1.49157,-1.49794s-0.63924,-1.49794 -1.49157,-1.49794z" class="st4"/>
     <path stroke="null" fill="#FFFFFF" d="m88.11618,350.36009c-0.85233,0 -1.49157,0.7133 -1.49157,1.49794s0.71027,1.49794 1.49157,1.49794c0.85233,0 1.49157,-0.7133 1.49157,-1.49794s-0.63924,-1.49794 -1.49157,-1.49794z" class="st4"/>
    </g>
    <g stroke="null">
     <path stroke="null" fill="#F87474" d="m60.41559,346.00894l-6.25039,0c-1.91773,0 -3.48033,1.56927 -3.48033,3.49518l0,13.98073c0,1.92592 1.5626,3.49518 3.48033,3.49518l6.25039,0c1.34952,0 2.41492,-1.06995 2.41492,-2.42523l0,-16.19197c-0.07103,-1.28395 -1.13643,-2.3539 -2.41492,-2.3539z" class="st2"/>
     <path stroke="null" fill="#F87474" d="m109.8505,346.00894l-6.25039,0c-1.34952,0 -2.41492,1.06995 -2.41492,2.42523l0,16.12064c0,1.35528 1.06541,2.42523 2.41492,2.42523l6.25039,0c1.91773,0 3.48033,-1.56927 3.48033,-3.49518l0,-14.05206c0,-1.92592 -1.5626,-3.42385 -3.48033,-3.42385z" class="st2"/>
    </g>
   </g>
  </g>
  <g stroke="null">
   <g stroke="null">
    <g stroke="null">
     <g stroke="null">
      <path stroke="null" fill="#448FFC" d="m710.81816,54.37095l-1.81743,0l0,5.53279l1.81743,0c1.00969,0 1.88475,-0.62166 1.88475,-1.42982l0,-2.73531c0,-0.74599 -0.80775,-1.36766 -1.88475,-1.36766z" class="st0"/>
      <path stroke="null" fill="#448FFC" d="m684.22979,55.7386l0,2.73531c0,0.74599 0.80775,1.42982 1.88475,1.42982l1.81743,0l0,-5.53279l-1.81743,0c-1.077,0 -1.88475,0.62166 -1.88475,1.36766z" class="st0"/>
     </g>
     <path stroke="null" fill="#F99653" d="m722.46319,97.01697l-47.9937,0l0,-17.84171c0,-2.85965 2.22131,-5.40846 5.51961,-6.34095l13.79903,-3.85431c3.09637,-0.87033 6.32736,-0.87033 9.2891,0l13.79903,3.85431c3.2983,0.93249 5.51961,3.48131 5.51961,6.34095l0.06731,17.84171l0,0z" class="st1"/>
     <rect stroke="null" fill="#FFD551" y="81.66192" x="701.66368" width="8.01017" height="1.61632" class="st2"/>
     <rect stroke="null" fill="#EDBF9A" y="61.20923" x="693.38426" width="10.16416" height="13.05491" class="st3"/>
     <path stroke="null" fill="#FFD9B6" d="m710.01041,54.74394c0,7.21128 -5.18305,14.5469 -11.51041,14.5469s-11.57772,-7.39778 -11.57772,-14.5469s5.18305,-11.56292 11.57772,-11.56292s11.51041,4.35164 11.51041,11.56292z" class="st4"/>
     <g stroke="null">
      <path stroke="null" fill="#E08344" d="m685.50872,84.0864l-0.33656,0c-0.33656,0 -0.67312,0.24866 -0.67312,0.62166l0,12.24675l1.75012,0l0,-12.18458c-0.06731,-0.373 -0.40387,-0.68383 -0.74044,-0.68383z" class="st5"/>
      <path stroke="null" fill="#E08344" d="m711.82784,84.0864l-0.33656,0c-0.33656,0 -0.67312,0.24866 -0.67312,0.62166l0,12.24675l1.75012,0l0,-12.18458c-0.06731,-0.373 -0.33656,-0.68383 -0.74044,-0.68383z" class="st5"/>
      <polygon stroke="null" fill="#E08344" points="703.5483968373374,69.91250480423832 698.5000006600712,74.13980221177144 693.3842429382858,69.91250480423832 692.6438264455392,69.29084116039621 687.2588773170246,70.78282622032066 695.2689904195468,77.49677820322222 698.5000006600712,74.26414390671926 701.663700310346,77.49677820322222 709.7411240031179,70.78282622032066 704.2888642843536,69.29084116039621 " class="st5"/>
     </g>
     <g stroke="null">
      <path stroke="null" fill="#448FFC" d="m703.07724,64.44187c-0.80775,0 -1.00969,0 -2.01937,-0.06217l-1.00969,0l0,-0.74599l1.00969,0c4.64455,0.12433 6.19274,0.1865 7.60629,-0.93249c1.48087,-1.11899 1.21162,-3.97864 1.21162,-4.0408l0.80775,-0.06217c0,0.12433 0.33656,3.29481 -1.48087,4.66247c-1.34625,1.05683 -3.09637,1.18116 -6.12542,1.18116z" class="st0"/>
     </g>
     <path stroke="null" fill="#F99653" d="m701.93293,65.3122l-2.75981,0c-0.40387,0 -0.74044,-0.31083 -0.74044,-0.68383l0,-0.93249c0,-0.373 0.33656,-0.68383 0.74044,-0.68383l2.75981,0c0.40387,0 0.74044,0.31083 0.74044,0.68383l0,0.93249c0.06731,0.31083 -0.26925,0.68383 -0.74044,0.68383z" class="st1"/>
     <path stroke="null" fill="#3F3F3F" d="m710.01041,47.90566c0,-3.29481 -1.81743,-3.41914 -1.81743,-3.41914l-2.82712,-0.31083c-0.5385,-0.06217 -0.94237,-0.43516 -1.00969,-0.93249c-0.33656,-1.67849 -1.68281,-1.49199 -1.68281,-1.49199s-9.35641,0 -12.31816,1.05683c-3.43293,1.24332 -4.24068,3.41914 -4.24068,5.22196c0,3.66781 1.00969,10.25743 1.6155,11.74942c0.13462,0.31083 0.74044,0.24866 0.74044,-0.12433l0,-4.91113c0,-0.31083 0.26925,-0.5595 0.60581,-0.5595l13.05859,0c0.33656,0 0.60581,-0.24866 0.60581,-0.5595l0,-1.18116c0,-0.31083 0.26925,-0.5595 0.60581,-0.5595s0.5385,0.24866 0.5385,0.5595l0,1.18116c0,0.31083 0.26925,0.5595 0.60581,0.5595l3.36562,0c0.33656,0 0.60581,0.24866 0.60581,0.5595l0,4.72463c0,0.373 0.74044,0.373 0.87506,0.06217c0.47119,-1.55416 0.74044,-3.10831 0.74044,-4.72463c0,-0.68383 -0.06731,-4.9733 -0.06731,-6.90045z" class="st6"/>
    </g>
    <path stroke="null" fill="#EFEEED" d="m679.98911,76.25346l36.95447,0c1.27893,0 2.28862,0.99466 2.15399,2.17582l-1.34625,19.27153l-38.50266,0l-1.34625,-19.27153c-0.13462,-1.18116 0.80775,-2.17582 2.08668,-2.17582z" class="st7"/>
    <g stroke="null">
     <path stroke="null" fill="#80B2F9" d="m700.92324,92.85184c0,-0.99466 -0.67312,-1.80282 -1.6155,-2.11365l0,1.74065c0,0.373 -0.26925,0.74599 -0.74044,0.74599c-0.47119,0.06217 -0.94237,-0.31083 -0.94237,-0.74599l0,-1.74065c-1.00969,0.31083 -1.68281,1.24332 -1.6155,2.30015c0.06731,0.87033 0.74044,1.61632 1.6155,1.92715l0,2.30015l1.6155,0l0,-2.30015c1.00969,-0.24866 1.68281,-1.11899 1.68281,-2.11365z" class="st8"/>
     <path stroke="null" fill="#80B2F9" d="m705.5678,94.65466l1.6155,0l0,-3.35698l-1.6155,0c-0.20194,-0.62166 -0.40387,-1.24332 -0.80775,-1.74065l1.14431,-1.05683l-2.55787,-2.42448l-1.14431,1.05683c-0.60581,-0.31083 -1.21162,-0.5595 -1.88475,-0.74599l0,-1.49199l-3.63487,0l0,1.49199c-0.67312,0.1865 -1.27893,0.373 -1.88475,0.74599l-1.14431,-1.05683l-2.55787,2.36232l1.14431,1.05683c-0.33656,0.5595 -0.60581,1.11899 -0.80775,1.74065l-1.6155,0l0,3.35698l1.6155,0c0.13462,0.5595 0.40387,1.05683 0.67312,1.55416c0,0.06217 0.06731,0.12433 0.13462,0.1865l-1.14431,1.05683l1.95206,1.80282l1.21162,0l0.5385,-0.49733c0.33656,0.1865 0.74044,0.373 1.077,0.49733l5.25036,0c0.40387,-0.12433 0.74044,-0.31083 1.077,-0.49733l0.5385,0.49733l1.21162,0l2.01937,-1.80282l-1.14431,-1.05683c0.06731,-0.06217 0.06731,-0.12433 0.13462,-0.24866c0.26925,-0.43516 0.47119,-0.93249 0.60581,-1.42982zm-6.26005,1.92715c-0.26925,0.06217 -0.5385,0.06217 -0.80775,0.06217c-0.26925,0 -0.5385,0 -0.80775,-0.06217c-0.40387,-0.06217 -0.80775,-0.24866 -1.21162,-0.43516c-1.21162,-0.62166 -2.01937,-1.86499 -2.01937,-3.23264c0,-2.05149 1.81743,-3.72997 4.03874,-3.72997s4.03874,1.67849 4.03874,3.72997c0,1.36766 -0.80775,2.54882 -2.01937,3.23264c-0.33656,0.1865 -0.80775,0.373 -1.21162,0.43516z" class="st8"/>
    </g>
    <path stroke="null" fill="#448FFC" d="m726.3,97.7008c0,0.43516 -0.20194,0.80816 -0.47119,1.11899c-0.26925,0.31083 -0.74044,0.43516 -1.21162,0.43516l-52.23437,0c-0.94237,0 -1.68281,-0.68383 -1.68281,-1.55416c0,-0.43516 0.20194,-0.80816 0.47119,-1.11899c0.26925,-0.31083 0.74044,-0.43516 1.21162,-0.43516l52.23437,0c0.94237,0 1.68281,0.68383 1.68281,1.55416z" class="st0"/>
   </g>
  </g>
  <g stroke="null">
   <g stroke="null">
    <path stroke="null" fill="#6CEF6F" d="m182.09323,200.24236l-3.09936,2.02578c-4.7747,3.16021 -9.29809,4.9429 -11.97863,1.21547l-15.32929,-21.63531c-2.7643,-3.88949 0.58637,-7.2928 5.5286,-10.37198l3.09936,-2.02578l-10.47083,-14.90972l-4.43963,2.91712c-7.87406,5.18599 -9.88446,15.39591 -4.5234,22.93181l23.37089,33.14173c5.36106,7.61692 15.91566,9.56167 23.70595,4.37568l4.43963,-2.91712l-10.30329,-14.74766z" class="st0"/>
    <g stroke="null">
     <path stroke="null" fill="#66DD66" d="m161.82171,167.34373l-9.29809,-13.04601c-1.5078,-2.18784 -4.60716,-2.75506 -6.86886,-1.21547l0,0c-2.2617,1.45856 -2.84807,4.45671 -1.2565,6.64455l9.21433,13.04601c1.5078,2.18784 4.60716,2.75506 6.86886,1.21547l0,0c2.2617,-1.53959 2.84807,-4.45671 1.34027,-6.64455z" class="st1"/>
     <path stroke="null" fill="#66DD66" d="m193.73679,212.72115l-9.29809,-13.12704c-1.5078,-2.18784 -4.60716,-2.75506 -6.86886,-1.21547l0,0c-2.2617,1.45856 -2.84807,4.45671 -1.2565,6.64455l9.29809,13.04601c1.5078,2.18784 4.60716,2.75506 6.86886,1.21547l0,0c2.2617,-1.45856 2.84807,-4.37568 1.2565,-6.56352z" class="st1"/>
    </g>
    <path stroke="null" fill="#3DB2FF" d="m209.90375,171.47632c-1.5078,10.04786 -10.72213,17.66478 -21.19296,17.42169c-2.93183,-0.08103 -5.7799,-0.72928 -8.2929,-1.78268c-1.34027,-0.56722 -6.7851,1.45856 -9.96823,2.67403c-0.83767,0.32412 -1.67533,-0.48619 -1.2565,-1.2965c1.34027,-2.67403 3.43443,-7.13074 2.7643,-7.94105c-3.18313,-4.29465 -4.60716,-9.72373 -3.68573,-15.47694c1.7591,-10.04786 11.30849,-17.42169 21.77932,-16.85447c12.48123,0.56722 21.61179,11.34436 19.85269,23.25593z" class="st2"/>
    <g stroke="null">
     <path stroke="null" fill="#FFFFFF" d="m189.54846,174.63653l-2.09417,0c-0.67013,0 -1.17273,-0.56722 -1.17273,-1.13444l0,0c0,-1.37753 0.2513,-2.51196 0.67013,-3.40331c0.5026,-0.89134 1.42403,-1.86372 2.84807,-2.99815c1.42403,-1.13444 2.2617,-1.86372 2.513,-2.18784c0.41883,-0.56722 0.67013,-1.13444 0.67013,-1.86372c0,-0.89134 -0.41883,-1.70165 -1.08897,-2.3499c-0.7539,-0.64825 -1.7591,-0.97237 -3.09936,-0.97237c-1.2565,0 -2.2617,0.32412 -3.09936,0.97237c-0.5026,0.40516 -0.83767,0.89134 -1.17273,1.53959c-0.41883,0.89134 -1.34027,1.45856 -2.34547,1.37753l0,0c-1.59157,-0.24309 -2.513,-1.86372 -1.7591,-3.24124c0.41883,-0.72928 1.0052,-1.45856 1.7591,-2.10681c1.67533,-1.37753 3.7695,-2.02578 6.36626,-2.02578c2.7643,0 4.94223,0.64825 6.61756,2.10681c1.67533,1.37753 2.42923,3.07918 2.42923,4.86187c0,1.0534 -0.33507,1.94475 -0.83767,2.91712c-0.58637,0.89134 -1.92663,2.18784 -3.85326,3.72743c-1.0052,0.81031 -1.67533,1.45856 -1.92663,1.94475c-0.16753,0.40516 -0.33507,0.89134 -0.33507,1.70165c0,0.64825 -0.41883,1.13444 -1.08897,1.13444zm-3.18313,4.05156l0,-0.24309c0,-1.21547 1.0052,-2.18784 2.2617,-2.18784l0.2513,0c1.2565,0 2.2617,0.97237 2.2617,2.18784l0,0.24309c0,1.21547 -1.0052,2.18784 -2.2617,2.18784l-0.2513,0c-1.2565,0 -2.2617,-0.97237 -2.2617,-2.18784z" class="st3"/>
    </g>
   </g>
  </g>
  <g stroke="null">
   <g stroke="null">
    <path stroke="null" fill="#4D96FF" d="m736.6864,240.19218l0,-10.29068c0,-1.29586 -1.0348,-2.28682 -2.38801,-2.28682l-3.42281,0c-0.6368,-2.28682 -1.59201,-4.57363 -2.86561,-6.47932l2.38801,-2.28682c0.9552,-0.91473 0.9552,-2.36304 0,-3.20154l-5.97002,-5.79327c-0.9552,-0.91473 -2.46761,-0.91473 -3.42281,0l-2.38801,2.28682c-2.14921,-1.21964 -4.37801,-2.13436 -6.76602,-2.74418l0,-3.27777c0,-1.29586 -1.0348,-2.28682 -2.38801,-2.28682l-8.35803,0c-1.3532,0 -2.38801,0.99095 -2.38801,2.28682l0,3.27777c-2.38801,0.60982 -4.77602,1.52454 -6.76602,2.74418l-2.46761,-2.36304c-0.9552,-0.91473 -2.46761,-0.8385 -3.34321,0l-5.97002,5.71704c-0.9552,0.91473 -0.9552,2.36304 0,3.20154l2.38801,2.28682c-1.2736,2.05814 -2.22881,4.1925 -2.86561,6.47932l-3.42281,0c-1.3532,0 -2.38801,0.99095 -2.38801,2.28682l0,8.08009c0,1.29586 1.0348,2.28682 2.38801,2.28682l3.42281,0c0.6368,2.28682 1.59201,4.57363 2.86561,6.47932l-2.46761,2.36304c-0.9552,0.91473 -0.8756,2.36304 0,3.20154l5.97002,5.71704c0.9552,0.91473 2.46761,0.91473 3.34321,0l2.38801,-2.28682c2.14921,1.21964 4.37801,2.13436 6.76602,2.74418l0,3.27777c0,1.29586 1.0348,2.28682 2.38801,2.28682l8.43763,0c1.3532,0 2.38801,-0.99095 2.38801,-2.28682l0,-3.27777c2.38801,-0.60982 4.77602,-1.52454 6.76602,-2.74418l2.38801,2.28682c0.9552,0.91473 2.46761,0.91473 3.34321,0l6.04962,-5.71704c0.9552,-0.91473 0.9552,-2.36304 0,-3.27777l-2.38801,-2.28682c1.2736,-2.05814 2.22881,-4.1925 2.86561,-6.47932l5.89042,0.07623l0,0zm-31.36251,9.98577c-9.39283,0 -16.95486,-7.24159 -16.95486,-16.2364s7.56203,-16.2364 16.95486,-16.2364s16.95486,7.24159 16.95486,16.2364s-7.64163,16.2364 -16.95486,16.2364z" class="st0"/>
    <path stroke="null" fill="#FFD07A" d="m713.92072,225.25164c-3.82081,-3.65891 -9.47243,-4.49741 -14.16885,-2.28682l6.76602,6.47932c1.51241,1.44832 1.75121,3.73514 0.398,5.41213c-1.59201,1.90568 -4.53722,2.05814 -6.20882,0.38114l-6.92522,-6.63177c-2.38801,4.72609 -1.194,10.67181 3.34321,14.33072c3.66161,2.97286 8.91523,3.50645 13.21364,1.52454l20.61647,24.08781c2.78601,3.27777 7.88043,3.50645 10.98484,0.53359l0,0c3.10441,-2.97286 2.86561,-7.85141 -0.5572,-10.51936l-25.07408,-19.74286c2.30841,-4.49741 1.4328,-9.90954 -2.38801,-13.56845zm25.63129,41.46762c-1.51241,1.44832 -4.05961,1.44832 -5.57202,0c-1.51241,-1.44832 -1.51241,-3.88759 0,-5.33591s4.05961,-1.44832 5.57202,0c1.51241,1.44832 1.51241,3.81136 0,5.33591z" class="st1"/>
   </g>
  </g>
  <g stroke="null">
   <g stroke="null">
    <path stroke="null" fill="#3AB0FF" d="m235.98276,427.96249l-60.96552,0c-1.95402,0 -3.51724,1.56301 -3.51724,3.51678l0,33.83921c0,1.95377 1.56322,3.51678 3.51724,3.51678l23.6046,0l5.86207,8.67472c0.46897,0.70336 1.56322,0.70336 2.03218,0l5.86207,-8.67472l23.6046,0c1.95402,0 3.51724,-1.56301 3.51724,-3.51678l0,-33.83921c0,-1.95377 -1.56322,-3.51678 -3.51724,-3.51678z" class="st0"/>
    <g stroke="null">
     <path stroke="null" fill="#FFFFFF" d="m178.45632,450.31357l4.92414,0c0.54713,0 1.01609,-0.4689 1.01609,-1.01596s-0.46897,-1.01596 -1.01609,-1.01596l-4.92414,0c-0.54713,0 -1.01609,0.4689 -1.01609,1.01596s0.46897,1.01596 1.01609,1.01596z" class="st1"/>
     <path stroke="null" fill="#FFFFFF" d="m187.21035,450.31357l45.33333,0c0.54713,0 1.01609,-0.4689 1.01609,-1.01596s-0.46897,-1.01596 -1.01609,-1.01596l-45.33333,0c-0.54713,0 -1.01609,0.4689 -1.01609,1.01596s0.46897,1.01596 1.01609,1.01596z" class="st1"/>
     <path stroke="null" fill="#FFFFFF" d="m232.54368,452.34548l-54.08736,0c-0.54713,0 -1.01609,0.4689 -1.01609,1.01596s0.46897,1.01596 1.01609,1.01596l54.08736,0c0.54713,0 1.01609,-0.4689 1.01609,-1.01596s-0.46897,-1.01596 -1.01609,-1.01596z" class="st1"/>
     <path stroke="null" fill="#FFFFFF" d="m232.54368,456.40931l-54.08736,0c-0.54713,0 -1.01609,0.4689 -1.01609,1.01596c0,0.54705 0.46897,1.01596 1.01609,1.01596l54.08736,0c0.54713,0 1.01609,-0.4689 1.01609,-1.01596c0,-0.54705 -0.46897,-1.01596 -1.01609,-1.01596z" class="st1"/>
     <path stroke="null" fill="#FFFFFF" d="m232.54368,460.47314l-54.08736,0c-0.54713,0 -1.01609,0.4689 -1.01609,1.01596c0,0.54705 0.46897,1.01596 1.01609,1.01596l54.08736,0c0.54713,0 1.01609,-0.4689 1.01609,-1.01596c0,-0.54705 -0.46897,-1.01596 -1.01609,-1.01596z" class="st1"/>
    </g>
    <circle stroke="null" fill="#FFB225" r="4.76719" cy="438.98173" cx="182.20805" class="st2"/>
    <g stroke="null">
     <path stroke="null" fill="#FFD63E" d="m196.43333,438.12207l-1.87586,-0.23445l-0.85977,-1.71931c-0.07816,-0.1563 -0.23448,-0.1563 -0.31264,0l-0.85977,1.71931l-1.95402,0.23445c-0.15632,0 -0.23448,0.23445 -0.07816,0.3126l1.4069,1.32856l-0.31264,1.95377c0,0.1563 0.15632,0.23445 0.23448,0.23445l1.71954,-0.93781l1.71954,0.93781c0.15632,0.07815 0.31264,-0.07815 0.23448,-0.23445l-0.31264,-1.95377l1.4069,-1.32856c0.07816,-0.07815 0,-0.23445 -0.15632,-0.3126z" class="st3"/>
     <path stroke="null" fill="#FFD63E" d="m204.64023,438.12207l-1.95402,-0.3126l-0.85977,-1.71931c-0.07816,-0.1563 -0.23448,-0.1563 -0.31264,0l-0.85977,1.71931l-1.95402,0.3126c-0.15632,0 -0.23448,0.23445 -0.07816,0.3126l1.4069,1.32856l-0.31264,1.95377c0,0.1563 0.15632,0.23445 0.23448,0.23445l1.71954,-0.93781l1.71954,0.93781c0.15632,0.07815 0.31264,-0.07815 0.23448,-0.23445l-0.31264,-1.95377l1.4069,-1.32856c0.07816,-0.07815 0.07816,-0.23445 -0.07816,-0.3126z" class="st3"/>
     <path stroke="null" fill="#FFD63E" d="m212.76897,438.12207l-1.95402,-0.3126l-0.85977,-1.71931c-0.07816,-0.1563 -0.23448,-0.1563 -0.31264,0l-0.85977,1.71931l-1.95402,0.3126c-0.15632,0 -0.23448,0.23445 -0.07816,0.3126l1.4069,1.32856l-0.31264,1.95377c0,0.1563 0.15632,0.23445 0.23448,0.23445l1.71954,-0.93781l1.71954,0.93781c0.15632,0.07815 0.31264,-0.07815 0.23448,-0.23445l-0.31264,-1.95377l1.4069,-1.32856c0.15632,-0.07815 0.07816,-0.23445 -0.07816,-0.3126z" class="st3"/>
     <path stroke="null" fill="#FFD63E" d="m220.8977,438.12207l-1.95402,-0.3126l-0.85977,-1.71931c-0.07816,-0.1563 -0.23448,-0.1563 -0.31264,0l-0.85977,1.71931l-1.95402,0.3126c-0.15632,0 -0.23448,0.23445 -0.07816,0.3126l1.4069,1.32856l-0.31264,1.95377c0,0.1563 0.15632,0.23445 0.23448,0.23445l1.71954,-0.93781l1.71954,0.93781c0.15632,0.07815 0.31264,-0.07815 0.23448,-0.23445l-0.31264,-1.95377l1.4069,-1.32856c0.15632,-0.07815 0.07816,-0.23445 -0.07816,-0.3126z" class="st3"/>
     <path stroke="null" fill="#FFD63E" d="m229.1046,438.12207l-1.95402,-0.3126l-0.85977,-1.71931c-0.07816,-0.1563 -0.23448,-0.1563 -0.31264,0l-0.93793,1.79746l-1.87586,0.23445c-0.15632,0 -0.23448,0.23445 -0.07816,0.3126l1.4069,1.32856l-0.31264,1.95377c0,0.1563 0.15632,0.23445 0.23448,0.23445l1.71954,-0.93781l1.71954,0.93781c0.15632,0.07815 0.31264,-0.07815 0.23448,-0.23445l-0.31264,-1.95377l1.4069,-1.32856c0.07816,-0.07815 0.07816,-0.23445 -0.07816,-0.3126z" class="st3"/>
    </g>
   </g>
  </g>
  <g stroke="null">
   <g stroke="null">
    <path stroke="null" fill="#4D96FF" d="m229.00383,334.11222l0,-9.98503c0,-1.25737 -0.9906,-2.2189 -2.28601,-2.2189l-3.27661,0c-0.6096,-2.2189 -1.52401,-4.43779 -2.74321,-6.28687l2.28601,-2.2189c0.9144,-0.88756 0.9144,-2.29286 0,-3.10645l-5.71502,-5.6212c-0.9144,-0.88756 -2.36221,-0.88756 -3.27661,0l-2.28601,2.2189c-2.05741,-1.18341 -4.19102,-2.07097 -6.47703,-2.66267l0,-3.18042c0,-1.25737 -0.9906,-2.2189 -2.28601,-2.2189l-8.00103,0c-1.29541,0 -2.28601,0.96152 -2.28601,2.2189l0,3.18042c-2.28601,0.59171 -4.57202,1.47926 -6.47703,2.66267l-2.36221,-2.29286c-0.9144,-0.88756 -2.36221,-0.81359 -3.20041,0l-5.71502,5.54724c-0.9144,0.88756 -0.9144,2.29286 0,3.10645l2.28601,2.2189c-1.2192,1.99701 -2.13361,4.06797 -2.74321,6.28687l-3.27661,0c-1.29541,0 -2.28601,0.96152 -2.28601,2.2189l0,7.8401c0,1.25737 0.9906,2.2189 2.28601,2.2189l3.27661,0c0.6096,2.2189 1.52401,4.43779 2.74321,6.28687l-2.36221,2.29286c-0.9144,0.88756 -0.8382,2.29286 0,3.10645l5.71502,5.54724c0.9144,0.88756 2.36221,0.88756 3.20041,0l2.28601,-2.2189c2.05741,1.18341 4.19102,2.07097 6.47703,2.66267l0,3.18042c0,1.25737 0.9906,2.2189 2.28601,2.2189l8.07723,0c1.29541,0 2.28601,-0.96152 2.28601,-2.2189l0,-3.18042c2.28601,-0.59171 4.57202,-1.47926 6.47703,-2.66267l2.28601,2.2189c0.9144,0.88756 2.36221,0.88756 3.20041,0l5.79122,-5.54724c0.9144,-0.88756 0.9144,-2.29286 0,-3.18042l-2.28601,-2.2189c1.2192,-1.99701 2.13361,-4.06797 2.74321,-6.28687l5.63882,0.07396l0,0zm-30.02292,9.68918c-8.99164,0 -16.23067,-7.0265 -16.23067,-15.75416s7.23903,-15.75416 16.23067,-15.75416s16.23067,7.0265 16.23067,15.75416s-7.31523,15.75416 -16.23067,15.75416z" class="st0"/>
    <path stroke="null" fill="#FFD07A" d="m207.21054,319.61544c-3.65761,-3.55023 -9.06784,-4.36383 -13.56365,-2.2189l6.47703,6.28687c1.44781,1.4053 1.67641,3.6242 0.381,5.25139c-1.52401,1.84908 -4.34342,1.99701 -5.94362,0.36982l-6.62943,-6.4348c-2.28601,4.58572 -1.143,10.35484 3.20041,13.90508c3.50521,2.88456 8.53443,3.40231 12.64925,1.47926l19.73588,23.37236c2.66701,3.18042 7.54383,3.40231 10.51564,0.51774l0,0c2.97181,-2.88456 2.74321,-7.61821 -0.5334,-10.20692l-24.0031,-19.15646c2.20981,-4.36383 1.37161,-9.61521 -2.28601,-13.16545zm24.5365,40.23597c-1.44781,1.4053 -3.88622,1.4053 -5.33402,0c-1.44781,-1.4053 -1.44781,-3.77212 0,-5.17742s3.88622,-1.4053 5.33402,0c1.44781,1.4053 1.44781,3.69816 0,5.17742z" class="st1"/>
   </g>
  </g>
  <g stroke="null">
   <g stroke="null">
    <path stroke="null" fill="#3AB0FF" d="m628.24138,145.96249l-56.48276,0c-1.81034,0 -3.25862,1.62544 -3.25862,3.65724l0,35.19075c0,2.0318 1.44828,3.65724 3.25862,3.65724l21.86896,0l5.43103,9.02119c0.43448,0.73145 1.44828,0.73145 1.88276,0l5.43103,-9.02119l21.86896,0c1.81034,0 3.25862,-1.62544 3.25862,-3.65724l0,-35.19075c0,-2.0318 -1.44828,-3.65724 -3.25862,-3.65724z" class="st0"/>
    <g stroke="null">
     <path stroke="null" fill="#FFFFFF" d="m574.94483,169.20627l4.56207,0c0.5069,0 0.94138,-0.48763 0.94138,-1.05654s-0.43448,-1.05654 -0.94138,-1.05654l-4.56207,0c-0.5069,0 -0.94138,0.48763 -0.94138,1.05654s0.43448,1.05654 0.94138,1.05654z" class="st1"/>
     <path stroke="null" fill="#FFFFFF" d="m583.05517,169.20627l42,0c0.5069,0 0.94138,-0.48763 0.94138,-1.05654s-0.43448,-1.05654 -0.94138,-1.05654l-42,0c-0.5069,0 -0.94138,0.48763 -0.94138,1.05654s0.43448,1.05654 0.94138,1.05654z" class="st1"/>
     <path stroke="null" fill="#FFFFFF" d="m625.05517,171.31934l-50.11034,0c-0.5069,0 -0.94138,0.48763 -0.94138,1.05654s0.43448,1.05654 0.94138,1.05654l50.11034,0c0.5069,0 0.94138,-0.48763 0.94138,-1.05654s-0.43448,-1.05654 -0.94138,-1.05654z" class="st1"/>
     <path stroke="null" fill="#FFFFFF" d="m625.05517,175.54548l-50.11034,0c-0.5069,0 -0.94138,0.48763 -0.94138,1.05654c0,0.5689 0.43448,1.05654 0.94138,1.05654l50.11034,0c0.5069,0 0.94138,-0.48763 0.94138,-1.05654c0,-0.5689 -0.43448,-1.05654 -0.94138,-1.05654z" class="st1"/>
     <path stroke="null" fill="#FFFFFF" d="m625.05517,179.77162l-50.11034,0c-0.5069,0 -0.94138,0.48763 -0.94138,1.05654c0,0.5689 0.43448,1.05654 0.94138,1.05654l50.11034,0c0.5069,0 0.94138,-0.48763 0.94138,-1.05654c0,-0.5689 -0.43448,-1.05654 -0.94138,-1.05654z" class="st1"/>
    </g>
    <circle stroke="null" fill="#FFB225" r="4.41722" cy="157.42184" cx="578.42069" class="st2"/>
    <g stroke="null">
     <path stroke="null" fill="#FFD63E" d="m591.6,156.52785l-1.73793,-0.24382l-0.79655,-1.78798c-0.07241,-0.16254 -0.21724,-0.16254 -0.28966,0l-0.79655,1.78798l-1.81034,0.24382c-0.14483,0 -0.21724,0.24382 -0.07241,0.32509l1.30345,1.38162l-0.28966,2.0318c0,0.16254 0.14483,0.24382 0.21724,0.24382l1.5931,-0.97526l1.5931,0.97526c0.14483,0.08127 0.28966,-0.08127 0.21724,-0.24382l-0.28966,-2.0318l1.30345,-1.38162c0.07241,-0.08127 0,-0.24382 -0.14483,-0.32509z" class="st3"/>
     <path stroke="null" fill="#FFD63E" d="m599.20345,156.52785l-1.81034,-0.32509l-0.79655,-1.78798c-0.07241,-0.16254 -0.21724,-0.16254 -0.28966,0l-0.79655,1.78798l-1.81034,0.32509c-0.14483,0 -0.21724,0.24382 -0.07241,0.32509l1.30345,1.38162l-0.28966,2.0318c0,0.16254 0.14483,0.24382 0.21724,0.24382l1.5931,-0.97526l1.5931,0.97526c0.14483,0.08127 0.28966,-0.08127 0.21724,-0.24382l-0.28966,-2.0318l1.30345,-1.38162c0.07241,-0.08127 0.07241,-0.24382 -0.07241,-0.32509z" class="st3"/>
     <path stroke="null" fill="#FFD63E" d="m606.73448,156.52785l-1.81034,-0.32509l-0.79655,-1.78798c-0.07241,-0.16254 -0.21724,-0.16254 -0.28966,0l-0.79655,1.78798l-1.81034,0.32509c-0.14483,0 -0.21724,0.24382 -0.07241,0.32509l1.30345,1.38162l-0.28966,2.0318c0,0.16254 0.14483,0.24382 0.21724,0.24382l1.5931,-0.97526l1.5931,0.97526c0.14483,0.08127 0.28966,-0.08127 0.21724,-0.24382l-0.28966,-2.0318l1.30345,-1.38162c0.14483,-0.08127 0.07241,-0.24382 -0.07241,-0.32509z" class="st3"/>
     <path stroke="null" fill="#FFD63E" d="m614.26552,156.52785l-1.81034,-0.32509l-0.79655,-1.78798c-0.07241,-0.16254 -0.21724,-0.16254 -0.28966,0l-0.79655,1.78798l-1.81034,0.32509c-0.14483,0 -0.21724,0.24382 -0.07241,0.32509l1.30345,1.38162l-0.28966,2.0318c0,0.16254 0.14483,0.24382 0.21724,0.24382l1.5931,-0.97526l1.5931,0.97526c0.14483,0.08127 0.28966,-0.08127 0.21724,-0.24382l-0.28966,-2.0318l1.30345,-1.38162c0.14483,-0.08127 0.07241,-0.24382 -0.07241,-0.32509z" class="st3"/>
     <path stroke="null" fill="#FFD63E" d="m621.86897,156.52785l-1.81034,-0.32509l-0.79655,-1.78798c-0.07241,-0.16254 -0.21724,-0.16254 -0.28966,0l-0.86897,1.86925l-1.73793,0.24382c-0.14483,0 -0.21724,0.24382 -0.07241,0.32509l1.30345,1.38162l-0.28966,2.0318c0,0.16254 0.14483,0.24382 0.21724,0.24382l1.5931,-0.97526l1.5931,0.97526c0.14483,0.08127 0.28966,-0.08127 0.21724,-0.24382l-0.28966,-2.0318l1.30345,-1.38162c0.07241,-0.08127 0.07241,-0.24382 -0.07241,-0.32509z" class="st3"/>
    </g>
   </g>
  </g>
  <g stroke="null">
   <g stroke="null">
    <g stroke="null">
     <g stroke="null">
      <path stroke="null" fill="#448FFC" d="m340.6414,76.12729l-2.30775,0l0,6.30244l2.30775,0c1.28208,0 2.39322,-0.70814 2.39322,-1.62872l0,-3.11581c0,-0.84977 -1.02567,-1.55791 -2.39322,-1.55791z" class="st0"/>
      <path stroke="null" fill="#448FFC" d="m306.8799,77.6852l0,3.11581c0,0.84977 1.02567,1.62872 2.39322,1.62872l2.30775,0l0,-6.30244l-2.30775,0c-1.36755,0 -2.39322,0.70814 -2.39322,1.55791z" class="st0"/>
     </g>
     <path stroke="null" fill="#F99653" d="m355.42809,124.70565l-60.94165,0l0,-20.3236c0,-3.25744 2.82058,-6.16081 7.00872,-7.22302l17.52179,-4.39046c3.93172,-0.9914 8.03438,-0.9914 11.79516,0l17.52179,4.39046c4.18814,1.06221 7.00872,3.96558 7.00872,7.22302l0.08547,20.3236l0,0z" class="st1"/>
     <rect stroke="null" fill="#FFD551" y="107.21461" x="329.01719" width="10.17119" height="1.84116" class="st2"/>
     <rect stroke="null" fill="#EDBF9A" y="83.91683" x="318.50411" width="12.9063" height="14.87093" class="st3"/>
     <path stroke="null" fill="#FFD9B6" d="m339.61574,76.55218c0,8.21442 -6.58136,16.57046 -14.61574,16.57046s-14.70121,-8.42686 -14.70121,-16.57046s6.58136,-13.17139 14.70121,-13.17139s14.61574,4.95698 14.61574,13.17139z" class="st4"/>
     <g stroke="null">
      <path stroke="null" fill="#E08344" d="m308.50387,109.97635l-0.42736,0c-0.42736,0 -0.85472,0.28326 -0.85472,0.70814l0,13.95035l2.22228,0l0,-13.87953c-0.08547,-0.42488 -0.51283,-0.77895 -0.94019,-0.77895z" class="st5"/>
      <path stroke="null" fill="#E08344" d="m341.92348,109.97635l-0.42736,0c-0.42736,0 -0.85472,0.28326 -0.85472,0.70814l0,13.95035l2.22228,0l0,-13.87953c-0.08547,-0.42488 -0.42736,-0.77895 -0.94019,-0.77895z" class="st5"/>
      <polygon stroke="null" fill="#E08344" points="331.4104179675305,93.83078202813113 324.99999888252205,98.64611641836154 318.5041344102283,93.83078202813113 317.5638863934073,93.12264246039331 310.7261241197448,94.8221700877707 320.89734151832454,102.4700719179441 324.99999888252205,98.78775900229584 329.01717210869174,102.4700719179441 339.2738736452993,94.8221700877707 332.350627233609,93.12264246039331 " class="st5"/>
     </g>
     <g stroke="null">
      <path stroke="null" fill="#448FFC" d="m330.8121,87.59915c-1.02567,0 -1.28208,0 -2.56416,-0.07081l-1.28208,0l0,-0.84977l1.28208,0c5.89758,0.14163 7.86344,0.21244 9.65835,-1.06221c1.88039,-1.27465 1.5385,-4.53209 1.5385,-4.60291l1.02567,-0.07081c0,0.14163 0.42736,3.75314 -1.88039,5.31105c-1.70944,1.20384 -3.93172,1.34546 -7.77797,1.34546z" class="st0"/>
     </g>
     <path stroke="null" fill="#F99653" d="m329.35908,88.59055l-3.50436,0c-0.51283,0 -0.94019,-0.35407 -0.94019,-0.77895l0,-1.06221c0,-0.42488 0.42736,-0.77895 0.94019,-0.77895l3.50436,0c0.51283,0 0.94019,0.35407 0.94019,0.77895l0,1.06221c0.08547,0.35407 -0.34189,0.77895 -0.94019,0.77895z" class="st1"/>
     <path stroke="null" fill="#3F3F3F" d="m339.61574,68.76264c0,-3.75314 -2.30775,-3.89477 -2.30775,-3.89477l-3.58983,-0.35407c-0.68378,-0.07081 -1.19661,-0.4957 -1.28208,-1.06221c-0.42736,-1.91198 -2.1368,-1.69953 -2.1368,-1.69953s-11.88063,0 -15.6414,1.20384c-4.35908,1.41628 -5.38475,3.89477 -5.38475,5.94837c0,4.17802 1.28208,11.6843 2.05133,13.38383c0.17094,0.35407 0.94019,0.28326 0.94019,-0.14163l0,-5.5943c0,-0.35407 0.34189,-0.63733 0.76925,-0.63733l16.5816,0c0.42736,0 0.76925,-0.28326 0.76925,-0.63733l0,-1.34546c0,-0.35407 0.34189,-0.63733 0.76925,-0.63733s0.68378,0.28326 0.68378,0.63733l0,1.34546c0,0.35407 0.34189,0.63733 0.76925,0.63733l4.27361,0c0.42736,0 0.76925,0.28326 0.76925,0.63733l0,5.38186c0,0.42488 0.94019,0.42488 1.11114,0.07081c0.59831,-1.77035 0.94019,-3.5407 0.94019,-5.38186c0,-0.77895 -0.08547,-5.66512 -0.08547,-7.86035z" class="st6"/>
    </g>
    <path stroke="null" fill="#EFEEED" d="m301.49516,101.0538l46.92421,0c1.62397,0 2.90605,1.13302 2.73511,2.47849l-1.70944,21.95232l-48.89007,0l-1.70944,-21.95232c-0.17094,-1.34546 1.02567,-2.47849 2.64964,-2.47849z" class="st7"/>
    <g stroke="null">
     <path stroke="null" fill="#80B2F9" d="m328.077,119.96112c0,-1.13302 -0.85472,-2.0536 -2.05133,-2.40767l0,1.98279c0,0.42488 -0.34189,0.84977 -0.94019,0.84977c-0.59831,0.07081 -1.19661,-0.35407 -1.19661,-0.84977l0,-1.98279c-1.28208,0.35407 -2.1368,1.41628 -2.05133,2.62012c0.08547,0.9914 0.94019,1.84116 2.05133,2.19523l0,2.62012l2.05133,0l0,-2.62012c1.28208,-0.28326 2.1368,-1.27465 2.1368,-2.40767z" class="st8"/>
     <path stroke="null" fill="#80B2F9" d="m333.97457,122.01472l2.05133,0l0,-3.82395l-2.05133,0c-0.25642,-0.70814 -0.51283,-1.41628 -1.02567,-1.98279l1.45303,-1.20384l-3.24794,-2.76174l-1.45303,1.20384c-0.76925,-0.35407 -1.5385,-0.63733 -2.39322,-0.84977l0,-1.69953l-4.6155,0l0,1.69953c-0.85472,0.21244 -1.62397,0.42488 -2.39322,0.84977l-1.45303,-1.20384l-3.24794,2.69093l1.45303,1.20384c-0.42736,0.63733 -0.76925,1.27465 -1.02567,1.98279l-2.05133,0l0,3.82395l2.05133,0c0.17094,0.63733 0.51283,1.20384 0.85472,1.77035c0,0.07081 0.08547,0.14163 0.17094,0.21244l-1.45303,1.20384l2.47869,2.0536l1.5385,0l0.68378,-0.56651c0.42736,0.21244 0.94019,0.42488 1.36755,0.56651l6.66683,0c0.51283,-0.14163 0.94019,-0.35407 1.36755,-0.56651l0.68378,0.56651l1.5385,0l2.56416,-2.0536l-1.45303,-1.20384c0.08547,-0.07081 0.08547,-0.14163 0.17094,-0.28326c0.34189,-0.4957 0.59831,-1.06221 0.76925,-1.62872zm-7.94891,2.19523c-0.34189,0.07081 -0.68378,0.07081 -1.02567,0.07081c-0.34189,0 -0.68378,0 -1.02567,-0.07081c-0.51283,-0.07081 -1.02567,-0.28326 -1.5385,-0.4957c-1.5385,-0.70814 -2.56416,-2.12442 -2.56416,-3.68232c0,-2.33686 2.30775,-4.24884 5.12833,-4.24884s5.12833,1.91198 5.12833,4.24884c0,1.55791 -1.02567,2.90337 -2.56416,3.68232c-0.42736,0.21244 -1.02567,0.42488 -1.5385,0.4957z" class="st8"/>
    </g>
    <path stroke="null" fill="#448FFC" d="m360.3,125.48461c0,0.4957 -0.25642,0.92058 -0.59831,1.27465c-0.34189,0.35407 -0.94019,0.4957 -1.5385,0.4957l-66.32639,0c-1.19661,0 -2.1368,-0.77895 -2.1368,-1.77035c0,-0.4957 0.25642,-0.92058 0.59831,-1.27465c0.34189,-0.35407 0.94019,-0.4957 1.5385,-0.4957l66.32639,0c1.19661,0 2.1368,0.77895 2.1368,1.77035z" class="st0"/>
   </g>
  </g>
  <g stroke="null">
   <g stroke="null">
    <g stroke="null">
     <ellipse stroke="null" fill="#FFB562" transform="matrix(0.579941 -0.561139 0.579941 0.561139 67.3411 81.5379)" ry="6.6" rx="6.6" cy="657.0332" cx="46.9471" class="st0"/>
     <ellipse stroke="null" fill="#FFB562" transform="matrix(0.798188 -0.182364 0.188475 0.77231 90.5245 75.8939)" ry="6.6" rx="6.6" cy="553.72812" cx="436.79759" class="st0"/>
    </g>
    <g stroke="null">
     <path stroke="null" fill="#FFB562" d="m539.44056,414.28624l-4.59294,0c0,-13.49083 -11.31833,-24.4422 -25.2612,-24.4422c-13.94287,0 -25.2612,10.95138 -25.2612,24.4422l-4.59294,0c0,-15.95092 13.36875,-28.88624 29.85414,-28.88624s29.85414,12.93532 29.85414,28.88624z" class="st0"/>
    </g>
    <g stroke="null">
     <path stroke="null" fill="#3F3F3F" d="m517.21399,452.85413c-1.9684,0 -3.28067,-0.07936 -3.44471,-0.07936l0.16403,-1.74587c0.16403,0 18.78186,1.34908 20.99632,-6.11055c2.46051,-8.25321 1.23025,-16.98257 1.23025,-17.06193l1.80437,-0.23807c0.08202,0.31743 1.31227,9.12615 -1.31227,17.77615c-2.05042,6.5867 -13.53278,7.45963 -19.438,7.45963z" class="st1"/>
    </g>
    <path stroke="null" fill="#F87474" d="m518.03416,454.6l-8.2837,0c-0.73815,0 -1.31227,-0.5555 -1.31227,-1.26972l0,-3.17431c0,-0.71422 0.57412,-1.26972 1.31227,-1.26972l8.2837,0c0.73815,0 1.31227,0.5555 1.31227,1.26972l0,3.17431c0,0.71422 -0.57412,1.26972 -1.31227,1.26972z" class="st2"/>
    <path stroke="null" fill="#3AB0FF" d="m523.61131,429.99908l-14.02488,0l-10.17009,5.87248c-0.41008,0.23807 -0.90219,-0.15872 -0.82017,-0.5555l1.4763,-5.31697l-4.51093,0c-1.23025,0 -2.29647,-1.03165 -2.29647,-2.22202l0,-16.98257c0,-1.19037 1.06622,-2.22202 2.29647,-2.22202l27.96775,0c1.23025,0 2.29647,1.03165 2.29647,2.22202l0,17.06193c0.08202,1.19037 -0.9842,2.14266 -2.21446,2.14266z" class="st3"/>
    <g stroke="null">
     <path stroke="null" fill="#FFFFFF" d="m509.58642,417.61927c-0.9842,0 -1.72235,0.79358 -1.72235,1.66651s0.82017,1.66651 1.72235,1.66651c0.9842,0 1.72235,-0.79358 1.72235,-1.66651s-0.73815,-1.66651 -1.72235,-1.66651z" class="st4"/>
     <path stroke="null" fill="#FFFFFF" d="m502.53297,417.61927c-0.9842,0 -1.72235,0.79358 -1.72235,1.66651s0.82017,1.66651 1.72235,1.66651c0.9842,0 1.72235,-0.79358 1.72235,-1.66651s-0.73815,-1.66651 -1.72235,-1.66651z" class="st4"/>
     <path stroke="null" fill="#FFFFFF" d="m516.63988,417.61927c-0.9842,0 -1.72235,0.79358 -1.72235,1.66651s0.82017,1.66651 1.72235,1.66651c0.9842,0 1.72235,-0.79358 1.72235,-1.66651s-0.73815,-1.66651 -1.72235,-1.66651z" class="st4"/>
    </g>
    <g stroke="null">
     <path stroke="null" fill="#F87474" d="m484.6533,412.77844l-7.21748,0c-2.21446,0 -4.01883,1.74587 -4.01883,3.88853l0,15.55413c0,2.14266 1.80437,3.88853 4.01883,3.88853l7.21748,0c1.55832,0 2.78857,-1.19037 2.78857,-2.69817l0,-18.01422c-0.08202,-1.42844 -1.31227,-2.61881 -2.78857,-2.61881z" class="st2"/>
     <path stroke="null" fill="#F87474" d="m541.73704,412.77844l-7.21748,0c-1.55832,0 -2.78857,1.19037 -2.78857,2.69817l0,17.93486c0,1.5078 1.23025,2.69817 2.78857,2.69817l7.21748,0c2.21446,0 4.01883,-1.74587 4.01883,-3.88853l0,-15.63349c0,-2.14266 -1.80437,-3.80917 -4.01883,-3.80917z" class="st2"/>
    </g>
   </g>
  </g>
  <g stroke="null">
   <g stroke="null">
    <path stroke="null" fill="#4D96FF" d="m529.21545,523.11222l0,-9.98503c0,-1.25737 -0.96114,-2.2189 -2.21801,-2.2189l-3.17915,0c-0.59147,-2.2189 -1.47867,-4.43779 -2.66161,-6.28687l2.21801,-2.2189c0.8872,-0.88756 0.8872,-2.29286 0,-3.10645l-5.54503,-5.6212c-0.8872,-0.88756 -2.29194,-0.88756 -3.17915,0l-2.21801,2.2189c-1.99621,-1.18341 -4.06635,-2.07097 -6.28436,-2.66267l0,-3.18042c0,-1.25737 -0.96114,-2.2189 -2.21801,-2.2189l-7.76304,0c-1.25687,0 -2.21801,0.96152 -2.21801,2.2189l0,3.18042c-2.21801,0.59171 -4.43602,1.47926 -6.28436,2.66267l-2.29194,-2.29286c-0.8872,-0.88756 -2.29194,-0.81359 -3.10521,0l-5.54503,5.54724c-0.8872,0.88756 -0.8872,2.29286 0,3.10645l2.21801,2.2189c-1.18294,1.99701 -2.07014,4.06797 -2.66161,6.28687l-3.17915,0c-1.25687,0 -2.21801,0.96152 -2.21801,2.2189l0,7.8401c0,1.25737 0.96114,2.2189 2.21801,2.2189l3.17915,0c0.59147,2.2189 1.47867,4.43779 2.66161,6.28687l-2.29194,2.29286c-0.8872,0.88756 -0.81327,2.29286 0,3.10645l5.54503,5.54724c0.8872,0.88756 2.29194,0.88756 3.10521,0l2.21801,-2.2189c1.99621,1.18341 4.06635,2.07097 6.28436,2.66267l0,3.18042c0,1.25737 0.96114,2.2189 2.21801,2.2189l7.83697,0c1.25687,0 2.21801,-0.96152 2.21801,-2.2189l0,-3.18042c2.21801,-0.59171 4.43602,-1.47926 6.28436,-2.66267l2.21801,2.2189c0.8872,0.88756 2.29194,0.88756 3.10521,0l5.61896,-5.54724c0.8872,-0.88756 0.8872,-2.29286 0,-3.18042l-2.21801,-2.2189c1.18294,-1.99701 2.07014,-4.06797 2.66161,-6.28687l5.47109,0.07396l0,0zm-29.12987,9.68918c-8.72417,0 -15.74787,-7.0265 -15.74787,-15.75416s7.0237,-15.75416 15.74787,-15.75416s15.74787,7.0265 15.74787,15.75416s-7.09763,15.75416 -15.74787,15.75416z" class="st0"/>
    <path stroke="null" fill="#FFD07A" d="m508.07042,508.61544c-3.54882,-3.55023 -8.79811,-4.36383 -13.16019,-2.2189l6.28436,6.28687c1.40474,1.4053 1.62654,3.6242 0.36967,5.25139c-1.47867,1.84908 -4.21422,1.99701 -5.76683,0.36982l-6.43223,-6.4348c-2.21801,4.58572 -1.10901,10.35484 3.10521,13.90508c3.40095,2.88456 8.28057,3.40231 12.27299,1.47926l19.14882,23.37236c2.58768,3.18042 7.31943,3.40231 10.20285,0.51774l0,0c2.88341,-2.88456 2.66161,-7.61821 -0.51754,-10.20692l-23.28911,-19.15646c2.14408,-4.36383 1.33081,-9.61521 -2.21801,-13.16545zm23.80664,40.23597c-1.40474,1.4053 -3.77062,1.4053 -5.17536,0c-1.40474,-1.4053 -1.40474,-3.77212 0,-5.17742s3.77062,-1.4053 5.17536,0c1.40474,1.4053 1.40474,3.69816 0,5.17742z" class="st1"/>
   </g>
  </g>
  <g stroke="null">
   <g stroke="null">
    <path stroke="null" fill="#3AB0FF" d="m84.18966,209.96249l-57.37931,0c-1.83908,0 -3.31034,1.62544 -3.31034,3.65724l0,35.19075c0,2.0318 1.47126,3.65724 3.31034,3.65724l22.21609,0l5.51724,9.02119c0.44138,0.73145 1.47126,0.73145 1.91264,0l5.51724,-9.02119l22.21609,0c1.83908,0 3.31034,-1.62544 3.31034,-3.65724l0,-35.19075c0,-2.0318 -1.47126,-3.65724 -3.31034,-3.65724z" class="st0"/>
    <g stroke="null">
     <path stroke="null" fill="#FFFFFF" d="m30.04713,233.20627l4.63448,0c0.51494,0 0.95632,-0.48763 0.95632,-1.05654s-0.44138,-1.05654 -0.95632,-1.05654l-4.63448,0c-0.51494,0 -0.95632,0.48763 -0.95632,1.05654s0.44138,1.05654 0.95632,1.05654z" class="st1"/>
     <path stroke="null" fill="#FFFFFF" d="m38.28621,233.20627l42.66667,0c0.51494,0 0.95632,-0.48763 0.95632,-1.05654s-0.44138,-1.05654 -0.95632,-1.05654l-42.66667,0c-0.51494,0 -0.95632,0.48763 -0.95632,1.05654s0.44138,1.05654 0.95632,1.05654z" class="st1"/>
     <path stroke="null" fill="#FFFFFF" d="m80.95287,235.31934l-50.90575,0c-0.51494,0 -0.95632,0.48763 -0.95632,1.05654s0.44138,1.05654 0.95632,1.05654l50.90575,0c0.51494,0 0.95632,-0.48763 0.95632,-1.05654s-0.44138,-1.05654 -0.95632,-1.05654z" class="st1"/>
     <path stroke="null" fill="#FFFFFF" d="m80.95287,239.54548l-50.90575,0c-0.51494,0 -0.95632,0.48763 -0.95632,1.05654c0,0.5689 0.44138,1.05654 0.95632,1.05654l50.90575,0c0.51494,0 0.95632,-0.48763 0.95632,-1.05654c0,-0.5689 -0.44138,-1.05654 -0.95632,-1.05654z" class="st1"/>
     <path stroke="null" fill="#FFFFFF" d="m80.95287,243.77162l-50.90575,0c-0.51494,0 -0.95632,0.48763 -0.95632,1.05654c0,0.5689 0.44138,1.05654 0.95632,1.05654l50.90575,0c0.51494,0 0.95632,-0.48763 0.95632,-1.05654c0,-0.5689 -0.44138,-1.05654 -0.95632,-1.05654z" class="st1"/>
    </g>
    <circle stroke="null" fill="#FFB225" r="4.48736" cy="221.42184" cx="33.57816" class="st2"/>
    <g stroke="null">
     <path stroke="null" fill="#FFD63E" d="m46.96667,220.52785l-1.76552,-0.24382l-0.8092,-1.78798c-0.07356,-0.16254 -0.22069,-0.16254 -0.29425,0l-0.8092,1.78798l-1.83908,0.24382c-0.14713,0 -0.22069,0.24382 -0.07356,0.32509l1.32414,1.38162l-0.29425,2.0318c0,0.16254 0.14713,0.24382 0.22069,0.24382l1.61839,-0.97526l1.61839,0.97526c0.14713,0.08127 0.29425,-0.08127 0.22069,-0.24382l-0.29425,-2.0318l1.32414,-1.38162c0.07356,-0.08127 0,-0.24382 -0.14713,-0.32509z" class="st3"/>
     <path stroke="null" fill="#FFD63E" d="m54.6908,220.52785l-1.83908,-0.32509l-0.8092,-1.78798c-0.07356,-0.16254 -0.22069,-0.16254 -0.29425,0l-0.8092,1.78798l-1.83908,0.32509c-0.14713,0 -0.22069,0.24382 -0.07356,0.32509l1.32414,1.38162l-0.29425,2.0318c0,0.16254 0.14713,0.24382 0.22069,0.24382l1.61839,-0.97526l1.61839,0.97526c0.14713,0.08127 0.29425,-0.08127 0.22069,-0.24382l-0.29425,-2.0318l1.32414,-1.38162c0.07356,-0.08127 0.07356,-0.24382 -0.07356,-0.32509z" class="st3"/>
     <path stroke="null" fill="#FFD63E" d="m62.34138,220.52785l-1.83908,-0.32509l-0.8092,-1.78798c-0.07356,-0.16254 -0.22069,-0.16254 -0.29425,0l-0.8092,1.78798l-1.83908,0.32509c-0.14713,0 -0.22069,0.24382 -0.07356,0.32509l1.32414,1.38162l-0.29425,2.0318c0,0.16254 0.14713,0.24382 0.22069,0.24382l1.61839,-0.97526l1.61839,0.97526c0.14713,0.08127 0.29425,-0.08127 0.22069,-0.24382l-0.29425,-2.0318l1.32414,-1.38162c0.14713,-0.08127 0.07356,-0.24382 -0.07356,-0.32509z" class="st3"/>
     <path stroke="null" fill="#FFD63E" d="m69.99195,220.52785l-1.83908,-0.32509l-0.8092,-1.78798c-0.07356,-0.16254 -0.22069,-0.16254 -0.29425,0l-0.8092,1.78798l-1.83908,0.32509c-0.14713,0 -0.22069,0.24382 -0.07356,0.32509l1.32414,1.38162l-0.29425,2.0318c0,0.16254 0.14713,0.24382 0.22069,0.24382l1.61839,-0.97526l1.61839,0.97526c0.14713,0.08127 0.29425,-0.08127 0.22069,-0.24382l-0.29425,-2.0318l1.32414,-1.38162c0.14713,-0.08127 0.07356,-0.24382 -0.07356,-0.32509z" class="st3"/>
     <path stroke="null" fill="#FFD63E" d="m77.71609,220.52785l-1.83908,-0.32509l-0.8092,-1.78798c-0.07356,-0.16254 -0.22069,-0.16254 -0.29425,0l-0.88276,1.86925l-1.76552,0.24382c-0.14713,0 -0.22069,0.24382 -0.07356,0.32509l1.32414,1.38162l-0.29425,2.0318c0,0.16254 0.14713,0.24382 0.22069,0.24382l1.61839,-0.97526l1.61839,0.97526c0.14713,0.08127 0.29425,-0.08127 0.22069,-0.24382l-0.29425,-2.0318l1.32414,-1.38162c0.07356,-0.08127 0.07356,-0.24382 -0.07356,-0.32509z" class="st3"/>
    </g>
   </g>
  </g>
  <g stroke="null">
   <g stroke="null">
    <g stroke="null">
     <ellipse stroke="null" fill="#FFB562" transform="matrix(0.523426 -0.520594 0.523426 0.520594 123.05 30.1072)" ry="6.6" rx="6.6" cy="384.98028" cx="310.07853" class="st0"/>
     <ellipse stroke="null" fill="#FFB562" transform="matrix(0.720405 -0.169188 0.170108 0.716507 143.975 24.871)" ry="6.6" rx="6.6" cy="183.96422" cx="517.62718" class="st0"/>
    </g>
    <g stroke="null">
     <path stroke="null" fill="#FFB562" d="m544.47414,60.19908l-4.14536,0c0,-12.51606 -10.21536,-22.67615 -22.7995,-22.67615c-12.58414,0 -22.7995,10.16009 -22.7995,22.67615l-4.14536,0c0,-14.79839 12.06597,-26.79908 26.94486,-26.79908s26.94486,12.00069 26.94486,26.79908z" class="st0"/>
    </g>
    <g stroke="null">
     <path stroke="null" fill="#3F3F3F" d="m524.41354,95.98028c-1.77658,0 -2.96097,-0.07362 -3.10902,-0.07362l0.14805,-1.61972c0.14805,0 16.95158,1.25161 18.95023,-5.66904c2.22073,-7.65688 1.11037,-15.7555 1.11037,-15.82913l1.62854,-0.22087c0.07402,0.2945 1.18439,8.46674 -1.18439,16.49174c-1.85061,6.11078 -12.21402,6.92064 -17.54377,6.92064z" class="st1"/>
    </g>
    <path stroke="null" fill="#F87474" d="m525.15378,97.6l-7.47646,0c-0.66622,0 -1.18439,-0.51537 -1.18439,-1.17798l0,-2.94495c0,-0.66261 0.51817,-1.17798 1.18439,-1.17798l7.47646,0c0.66622,0 1.18439,0.51537 1.18439,1.17798l0,2.94495c0,0.66261 -0.51817,1.17798 -1.18439,1.17798z" class="st2"/>
    <path stroke="null" fill="#3AB0FF" d="m530.18744,74.77661l-12.65816,0l-9.17902,5.44817c-0.37012,0.22087 -0.81427,-0.14725 -0.74024,-0.51537l1.33244,-4.9328l-4.07134,0c-1.11037,0 -2.07268,-0.95711 -2.07268,-2.06147l0,-15.7555c0,-1.10436 0.96232,-2.06147 2.07268,-2.06147l25.2423,0c1.11037,0 2.07268,0.95711 2.07268,2.06147l0,15.82913c0.07402,1.10436 -0.88829,1.98784 -1.99866,1.98784z" class="st3"/>
    <g stroke="null">
     <path stroke="null" fill="#FFFFFF" d="m517.52927,63.29128c-0.88829,0 -1.55451,0.73624 -1.55451,1.5461s0.74024,1.5461 1.55451,1.5461c0.88829,0 1.55451,-0.73624 1.55451,-1.5461s-0.66622,-1.5461 -1.55451,-1.5461z" class="st4"/>
     <path stroke="null" fill="#FFFFFF" d="m511.16318,63.29128c-0.88829,0 -1.55451,0.73624 -1.55451,1.5461s0.74024,1.5461 1.55451,1.5461c0.88829,0 1.55451,-0.73624 1.55451,-1.5461s-0.66622,-1.5461 -1.55451,-1.5461z" class="st4"/>
     <path stroke="null" fill="#FFFFFF" d="m523.89537,63.29128c-0.88829,0 -1.55451,0.73624 -1.55451,1.5461s0.74024,1.5461 1.55451,1.5461c0.88829,0 1.55451,-0.73624 1.55451,-1.5461s-0.66622,-1.5461 -1.55451,-1.5461z" class="st4"/>
    </g>
    <g stroke="null">
     <path stroke="null" fill="#F87474" d="m495.02587,58.80023l-6.51414,0c-1.99866,0 -3.62719,1.61972 -3.62719,3.60757l0,14.43028c0,1.98784 1.62854,3.60757 3.62719,3.60757l6.51414,0c1.40646,0 2.51683,-1.10436 2.51683,-2.50321l0,-16.71261c-0.07402,-1.32523 -1.18439,-2.42959 -2.51683,-2.42959z" class="st2"/>
     <path stroke="null" fill="#F87474" d="m546.54682,58.80023l-6.51414,0c-1.40646,0 -2.51683,1.10436 -2.51683,2.50321l0,16.63899c0,1.39885 1.11037,2.50321 2.51683,2.50321l6.51414,0c1.99866,0 3.62719,-1.61972 3.62719,-3.60757l0,-14.5039c0,-1.98784 -1.62854,-3.53394 -3.62719,-3.53394z" class="st2"/>
    </g>
   </g>
  </g>
  <g stroke="null">
   <g stroke="null">
    <g stroke="null">
     <g stroke="null">
      <path stroke="null" fill="#448FFC" d="m96.31211,470.44455l-2.11162,0l0,6.87968l2.11162,0c1.17312,0 2.18983,-0.773 2.18983,-1.77789l0,-3.40119c0,-0.9276 -0.9385,-1.70059 -2.18983,-1.70059z" class="st0"/>
      <path stroke="null" fill="#448FFC" d="m65.41986,472.14514l0,3.40119c0,0.9276 0.9385,1.77789 2.18983,1.77789l2.11162,0l0,-6.87968l-2.11162,0c-1.25133,0 -2.18983,0.773 -2.18983,1.70059z" class="st0"/>
     </g>
     <path stroke="null" fill="#F99653" d="m109.84213,523.47216l-55.76247,0l0,-22.18502c0,-3.55579 2.58087,-6.72508 6.41308,-7.88457l16.03269,-4.79258c3.59758,-1.0822 7.35157,-1.0822 10.79274,0l16.03269,4.79258c3.8322,1.1595 6.41308,4.32878 6.41308,7.88457l0.07821,22.18502l0,0z" class="st1"/>
     <rect stroke="null" fill="#FFD551" y="504.37913" x="85.67579" width="9.30678" height="2.00979" class="st2"/>
     <rect stroke="null" fill="#EDBF9A" y="478.94752" x="76.05618" width="11.80944" height="16.23294" class="st3"/>
     <path stroke="null" fill="#FFD9B6" d="m95.37361,470.90835c0,8.96677 -6.02203,18.08814 -13.37361,18.08814s-13.45182,-9.19867 -13.45182,-18.08814s6.02203,-14.37775 13.45182,-14.37775s13.37361,5.41098 13.37361,14.37775z" class="st4"/>
     <g stroke="null">
      <path stroke="null" fill="#E08344" d="m66.90581,507.39382l-0.39104,0c-0.39104,0 -0.78208,0.3092 -0.78208,0.773l0,15.22805l2.03341,0l0,-15.15075c-0.07821,-0.4638 -0.46925,-0.8503 -0.86029,-0.8503z" class="st5"/>
      <path stroke="null" fill="#E08344" d="m97.48523,507.39382l-0.39104,0c-0.39104,0 -0.78208,0.3092 -0.78208,0.773l0,15.22805l2.03341,0l0,-15.15075c-0.07821,-0.4638 -0.39104,-0.8503 -0.86029,-0.8503z" class="st5"/>
      <polygon stroke="null" fill="#E08344" points="87.86561584472656,489.7695007324219 82,495.02587890625 76.05616760253906,489.7695007324219 75.19587707519531,488.99652099609375 68.93921661376953,490.8516845703125 78.24601745605469,499.2000427246094 82,495.18048095703125 85.67579650878906,499.2000427246094 95.060791015625,490.8516845703125 88.72591400146484,488.99652099609375 " class="st5"/>
     </g>
     <g stroke="null">
      <path stroke="null" fill="#448FFC" d="m87.31816,482.9671c-0.9385,0 -1.17312,0 -2.34625,-0.0773l-1.17312,0l0,-0.9276l1.17312,0c5.39637,0.1546 7.19516,0.2319 8.83753,-1.1595c1.72058,-1.3914 1.40775,-4.94718 1.40775,-5.02448l0.9385,-0.0773c0,0.1546 0.39104,4.09689 -1.72058,5.79748c-1.56416,1.3141 -3.59758,1.46869 -7.11695,1.46869z" class="st0"/>
     </g>
     <path stroke="null" fill="#F99653" d="m85.98862,484.0493l-3.20654,0c-0.46925,0 -0.86029,-0.3865 -0.86029,-0.8503l0,-1.1595c0,-0.4638 0.39104,-0.8503 0.86029,-0.8503l3.20654,0c0.46925,0 0.86029,0.3865 0.86029,0.8503l0,1.1595c0.07821,0.3865 -0.31283,0.8503 -0.86029,0.8503z" class="st1"/>
     <path stroke="null" fill="#3F3F3F" d="m95.37361,462.40538c0,-4.09689 -2.11162,-4.25149 -2.11162,-4.25149l-3.28475,-0.3865c-0.62567,-0.0773 -1.09492,-0.5411 -1.17312,-1.1595c-0.39104,-2.08709 -1.95521,-1.85519 -1.95521,-1.85519s-10.87094,0 -14.31211,1.3141c-3.98862,1.54599 -4.92712,4.25149 -4.92712,6.49318c0,4.56068 1.17312,12.75446 1.877,14.60965c0.15642,0.3865 0.86029,0.3092 0.86029,-0.1546l0,-6.10668c0,-0.3865 0.31283,-0.6957 0.70387,-0.6957l15.1724,0c0.39104,0 0.70387,-0.3092 0.70387,-0.6957l0,-1.46869c0,-0.3865 0.31283,-0.6957 0.70387,-0.6957s0.62567,0.3092 0.62567,0.6957l0,1.46869c0,0.3865 0.31283,0.6957 0.70387,0.6957l3.91041,0c0.39104,0 0.70387,0.3092 0.70387,0.6957l0,5.87478c0,0.4638 0.86029,0.4638 1.01671,0.0773c0.54746,-1.93249 0.86029,-3.86499 0.86029,-5.87478c0,-0.8503 -0.07821,-6.18398 -0.07821,-8.58027z" class="st6"/>
    </g>
    <path stroke="null" fill="#EFEEED" d="m60.49274,497.65405l42.93632,0c1.48596,0 2.65908,1.2368 2.50266,2.70549l-1.56416,23.96292l-44.73511,0l-1.56416,-23.96292c-0.15642,-1.46869 0.9385,-2.70549 2.42446,-2.70549z" class="st7"/>
    <g stroke="null">
     <path stroke="null" fill="#80B2F9" d="m84.8155,518.29308c0,-1.2368 -0.78208,-2.24169 -1.877,-2.62819l0,2.16439c0,0.4638 -0.31283,0.9276 -0.86029,0.9276c-0.54746,0.0773 -1.09492,-0.3865 -1.09492,-0.9276l0,-2.16439c-1.17312,0.3865 -1.95521,1.54599 -1.877,2.86009c0.07821,1.0822 0.86029,2.00979 1.877,2.39629l0,2.86009l1.877,0l0,-2.86009c1.17312,-0.3092 1.95521,-1.3914 1.95521,-2.62819z" class="st8"/>
     <path stroke="null" fill="#80B2F9" d="m90.21187,520.53477l1.877,0l0,-4.17419l-1.877,0c-0.23462,-0.773 -0.46925,-1.54599 -0.9385,-2.16439l1.32954,-1.3141l-2.97191,-3.01469l-1.32954,1.3141c-0.70387,-0.3865 -1.40775,-0.6957 -2.18983,-0.9276l0,-1.85519l-4.22324,0l0,1.85519c-0.78208,0.2319 -1.48596,0.4638 -2.18983,0.9276l-1.32954,-1.3141l-2.97191,2.93739l1.32954,1.3141c-0.39104,0.6957 -0.70387,1.3914 -0.9385,2.16439l-1.877,0l0,4.17419l1.877,0c0.15642,0.6957 0.46925,1.3141 0.78208,1.93249c0,0.0773 0.07821,0.1546 0.15642,0.2319l-1.32954,1.3141l2.26804,2.24169l1.40775,0l0.62567,-0.6184c0.39104,0.2319 0.86029,0.4638 1.25133,0.6184l6.10024,0c0.46925,-0.1546 0.86029,-0.3865 1.25133,-0.6184l0.62567,0.6184l1.40775,0l2.34625,-2.24169l-1.32954,-1.3141c0.07821,-0.0773 0.07821,-0.1546 0.15642,-0.3092c0.31283,-0.5411 0.54746,-1.1595 0.70387,-1.77789zm-7.27337,2.39629c-0.31283,0.0773 -0.62567,0.0773 -0.9385,0.0773c-0.31283,0 -0.62567,0 -0.9385,-0.0773c-0.46925,-0.0773 -0.9385,-0.3092 -1.40775,-0.5411c-1.40775,-0.773 -2.34625,-2.31899 -2.34625,-4.01959c0,-2.55089 2.11162,-4.63798 4.69249,-4.63798s4.69249,2.08709 4.69249,4.63798c0,1.70059 -0.9385,3.16929 -2.34625,4.01959c-0.39104,0.2319 -0.9385,0.4638 -1.40775,0.5411z" class="st8"/>
    </g>
    <path stroke="null" fill="#448FFC" d="m114.3,524.32246c0,0.5411 -0.23462,1.0049 -0.54746,1.3914c-0.31283,0.3865 -0.86029,0.5411 -1.40775,0.5411l-60.68959,0c-1.09492,0 -1.95521,-0.8503 -1.95521,-1.93249c0,-0.5411 0.23462,-1.0049 0.54746,-1.3914c0.31283,-0.3865 0.86029,-0.5411 1.40775,-0.5411l60.68959,0c1.09492,0 1.95521,0.8503 1.95521,1.93249z" class="st0"/>
   </g>
  </g>
  <g stroke="null">
   <g stroke="null">
    <path stroke="null" fill="#4D96FF" d="m475.36896,186.35211l0,-10.90198c0,-1.37284 -1.079,-2.42266 -2.49001,-2.42266l-3.56901,0c-0.664,-2.42266 -1.66,-4.84532 -2.98801,-6.86421l2.49001,-2.42266c0.996,-0.96906 0.996,-2.50342 0,-3.39173l-6.22502,-6.13741c-0.996,-0.96906 -2.57301,-0.96906 -3.56901,0l-2.49001,2.42266c-2.24101,-1.29209 -4.56501,-2.26115 -7.05502,-2.90719l0,-3.47248c0,-1.37284 -1.079,-2.42266 -2.49001,-2.42266l-8.71502,0c-1.411,0 -2.49001,1.04982 -2.49001,2.42266l0,3.47248c-2.49001,0.64604 -4.98001,1.61511 -7.05502,2.90719l-2.57301,-2.50342c-0.996,-0.96906 -2.57301,-0.88831 -3.48601,0l-6.22502,6.05665c-0.996,0.96906 -0.996,2.50342 0,3.39173l2.49001,2.42266c-1.328,2.1804 -2.32401,4.44155 -2.98801,6.86421l-3.56901,0c-1.411,0 -2.49001,1.04982 -2.49001,2.42266l0,8.56007c0,1.37284 1.079,2.42266 2.49001,2.42266l3.56901,0c0.664,2.42266 1.66,4.84532 2.98801,6.86421l-2.57301,2.50342c-0.996,0.96906 -0.913,2.50342 0,3.39173l6.22502,6.05665c0.996,0.96906 2.57301,0.96906 3.48601,0l2.49001,-2.42266c2.24101,1.29209 4.56501,2.26115 7.05502,2.90719l0,3.47248c0,1.37284 1.079,2.42266 2.49001,2.42266l8.79802,0c1.411,0 2.49001,-1.04982 2.49001,-2.42266l0,-3.47248c2.49001,-0.64604 4.98001,-1.61511 7.05502,-2.90719l2.49001,2.42266c0.996,0.96906 2.57301,0.96906 3.48601,0l6.30802,-6.05665c0.996,-0.96906 0.996,-2.50342 0,-3.47248l-2.49001,-2.42266c1.328,-2.1804 2.32401,-4.44155 2.98801,-6.86421l6.14202,0.08076l0,0zm-32.70209,10.57896c-9.79403,0 -17.67905,-7.67176 -17.67905,-17.2009s7.88502,-17.2009 17.67905,-17.2009s17.67905,7.67176 17.67905,17.2009s-7.96802,17.2009 -17.67905,17.2009z" class="st0"/>
    <path stroke="null" fill="#FFD07A" d="m451.6309,170.52405c-3.98401,-3.87626 -9.87703,-4.76457 -14.77404,-2.42266l7.05502,6.86421c1.577,1.53435 1.826,3.95701 0.415,5.73363c-1.66,2.01888 -4.73101,2.1804 -6.47402,0.40378l-7.22102,-7.02572c-2.49001,5.00683 -1.245,11.30575 3.48601,15.18201c3.81801,3.14946 9.29602,3.71475 13.77804,1.61511l21.49706,25.5187c2.90501,3.47248 8.21702,3.71475 11.45403,0.56529l0,0c3.23701,-3.14946 2.98801,-8.31781 -0.581,-11.14424l-26.14507,-20.91565c2.40701,-4.76457 1.494,-10.4982 -2.49001,-14.37446zm26.72607,43.93093c-1.577,1.53435 -4.23301,1.53435 -5.81002,0c-1.577,-1.53435 -1.577,-4.11852 0,-5.65288s4.23301,-1.53435 5.81002,0c1.577,1.53435 1.577,4.03777 0,5.65288z" class="st1"/>
   </g>
  </g>
  <g stroke="null">
   <g stroke="null">
    <path stroke="null" fill="#3AB0FF" d="m254.34483,34.96249l-54.68965,0c-1.75287,0 -3.15517,1.62544 -3.15517,3.65724l0,35.19075c0,2.0318 1.4023,3.65724 3.15517,3.65724l21.17471,0l5.25862,9.02119c0.42069,0.73145 1.4023,0.73145 1.82299,0l5.25862,-9.02119l21.17471,0c1.75287,0 3.15517,-1.62544 3.15517,-3.65724l0,-35.19075c0,-2.0318 -1.4023,-3.65724 -3.15517,-3.65724z" class="st0"/>
    <g stroke="null">
     <path stroke="null" fill="#FFFFFF" d="m202.74023,58.20627l4.41724,0c0.4908,0 0.91149,-0.48763 0.91149,-1.05654s-0.42069,-1.05654 -0.91149,-1.05654l-4.41724,0c-0.4908,0 -0.91149,0.48763 -0.91149,1.05654s0.42069,1.05654 0.91149,1.05654z" class="st1"/>
     <path stroke="null" fill="#FFFFFF" d="m210.5931,58.20627l40.66667,0c0.4908,0 0.91149,-0.48763 0.91149,-1.05654s-0.42069,-1.05654 -0.91149,-1.05654l-40.66667,0c-0.4908,0 -0.91149,0.48763 -0.91149,1.05654s0.42069,1.05654 0.91149,1.05654z" class="st1"/>
     <path stroke="null" fill="#FFFFFF" d="m251.25977,60.31934l-48.51954,0c-0.4908,0 -0.91149,0.48763 -0.91149,1.05654s0.42069,1.05654 0.91149,1.05654l48.51954,0c0.4908,0 0.91149,-0.48763 0.91149,-1.05654s-0.42069,-1.05654 -0.91149,-1.05654z" class="st1"/>
     <path stroke="null" fill="#FFFFFF" d="m251.25977,64.54548l-48.51954,0c-0.4908,0 -0.91149,0.48763 -0.91149,1.05654c0,0.5689 0.42069,1.05654 0.91149,1.05654l48.51954,0c0.4908,0 0.91149,-0.48763 0.91149,-1.05654c0,-0.5689 -0.42069,-1.05654 -0.91149,-1.05654z" class="st1"/>
     <path stroke="null" fill="#FFFFFF" d="m251.25977,68.77162l-48.51954,0c-0.4908,0 -0.91149,0.48763 -0.91149,1.05654c0,0.5689 0.42069,1.05654 0.91149,1.05654l48.51954,0c0.4908,0 0.91149,-0.48763 0.91149,-1.05654c0,-0.5689 -0.42069,-1.05654 -0.91149,-1.05654z" class="st1"/>
    </g>
    <circle stroke="null" fill="#FFB225" r="4.27702" cy="46.42184" cx="206.10575" class="st2"/>
    <g stroke="null">
     <path stroke="null" fill="#FFD63E" d="m218.86667,45.52785l-1.68276,-0.24382l-0.77126,-1.78798c-0.07011,-0.16254 -0.21034,-0.16254 -0.28046,0l-0.77126,1.78798l-1.75287,0.24382c-0.14023,0 -0.21034,0.24382 -0.07011,0.32509l1.26207,1.38162l-0.28046,2.0318c0,0.16254 0.14023,0.24382 0.21034,0.24382l1.54253,-0.97526l1.54253,0.97526c0.14023,0.08127 0.28046,-0.08127 0.21034,-0.24382l-0.28046,-2.0318l1.26207,-1.38162c0.07011,-0.08127 0,-0.24382 -0.14023,-0.32509z" class="st3"/>
     <path stroke="null" fill="#FFD63E" d="m226.22874,45.52785l-1.75287,-0.32509l-0.77126,-1.78798c-0.07011,-0.16254 -0.21034,-0.16254 -0.28046,0l-0.77126,1.78798l-1.75287,0.32509c-0.14023,0 -0.21034,0.24382 -0.07011,0.32509l1.26207,1.38162l-0.28046,2.0318c0,0.16254 0.14023,0.24382 0.21034,0.24382l1.54253,-0.97526l1.54253,0.97526c0.14023,0.08127 0.28046,-0.08127 0.21034,-0.24382l-0.28046,-2.0318l1.26207,-1.38162c0.07011,-0.08127 0.07011,-0.24382 -0.07011,-0.32509z" class="st3"/>
     <path stroke="null" fill="#FFD63E" d="m233.52069,45.52785l-1.75287,-0.32509l-0.77126,-1.78798c-0.07011,-0.16254 -0.21034,-0.16254 -0.28046,0l-0.77126,1.78798l-1.75287,0.32509c-0.14023,0 -0.21034,0.24382 -0.07011,0.32509l1.26207,1.38162l-0.28046,2.0318c0,0.16254 0.14023,0.24382 0.21034,0.24382l1.54253,-0.97526l1.54253,0.97526c0.14023,0.08127 0.28046,-0.08127 0.21034,-0.24382l-0.28046,-2.0318l1.26207,-1.38162c0.14023,-0.08127 0.07011,-0.24382 -0.07011,-0.32509z" class="st3"/>
     <path stroke="null" fill="#FFD63E" d="m240.81264,45.52785l-1.75287,-0.32509l-0.77126,-1.78798c-0.07011,-0.16254 -0.21034,-0.16254 -0.28046,0l-0.77126,1.78798l-1.75287,0.32509c-0.14023,0 -0.21034,0.24382 -0.07011,0.32509l1.26207,1.38162l-0.28046,2.0318c0,0.16254 0.14023,0.24382 0.21034,0.24382l1.54253,-0.97526l1.54253,0.97526c0.14023,0.08127 0.28046,-0.08127 0.21034,-0.24382l-0.28046,-2.0318l1.26207,-1.38162c0.14023,-0.08127 0.07011,-0.24382 -0.07011,-0.32509z" class="st3"/>
     <path stroke="null" fill="#FFD63E" d="m248.17471,45.52785l-1.75287,-0.32509l-0.77126,-1.78798c-0.07011,-0.16254 -0.21034,-0.16254 -0.28046,0l-0.84138,1.86925l-1.68276,0.24382c-0.14023,0 -0.21034,0.24382 -0.07011,0.32509l1.26207,1.38162l-0.28046,2.0318c0,0.16254 0.14023,0.24382 0.21034,0.24382l1.54253,-0.97526l1.54253,0.97526c0.14023,0.08127 0.28046,-0.08127 0.21034,-0.24382l-0.28046,-2.0318l1.26207,-1.38162c0.07011,-0.08127 0.07011,-0.24382 -0.07011,-0.32509z" class="st3"/>
    </g>
   </g>
  </g>
  <g stroke="null">
   <g stroke="null">
    <g stroke="null">
     <ellipse stroke="null" fill="#FFB562" transform="matrix(0.608199 -0.650337 0.608199 0.650337 15.549 67.8942)" ry="6.6" rx="6.6" cy="568.1633" cx="-130.09537" class="st0"/>
     <ellipse stroke="null" fill="#FFB562" transform="matrix(0.83708 -0.211353 0.197658 0.895076 39.862 61.353)" ry="6.6" rx="6.6" cy="571.19682" cx="239.46821" class="st0"/>
    </g>
    <g stroke="null">
     <path stroke="null" fill="#FFB562" d="m348.92377,510.87798l-4.81673,0c0,-15.63532 -11.86981,-28.32752 -26.49204,-28.32752c-14.62223,0 -26.49204,12.6922 -26.49204,28.32752l-4.81673,0c0,-18.48647 14.02014,-33.47798 31.30877,-33.47798s31.30877,14.99151 31.30877,33.47798z" class="st0"/>
    </g>
    <g stroke="null">
     <path stroke="null" fill="#3F3F3F" d="m325.61421,555.5766c-2.06431,0 -3.44052,-0.09197 -3.61255,-0.09197l0.17203,-2.02339c0.17203,0 19.697,1.56353 22.01936,-7.08188c2.58039,-9.56514 1.2902,-19.68211 1.2902,-19.77408l1.89229,-0.27592c0.08601,0.36789 1.37621,10.57683 -1.37621,20.60183c-2.15033,7.63372 -14.19216,8.64541 -20.38511,8.64541z" class="st1"/>
    </g>
    <path stroke="null" fill="#F87474" d="m326.47434,557.6l-8.68732,0c-0.77412,0 -1.37621,-0.64381 -1.37621,-1.47156l0,-3.6789c0,-0.82775 0.60209,-1.47156 1.37621,-1.47156l8.68732,0c0.77412,0 1.37621,0.64381 1.37621,1.47156l0,3.6789c0,0.82775 -0.60209,1.47156 -1.37621,1.47156z" class="st2"/>
    <path stroke="null" fill="#3AB0FF" d="m332.32324,529.08853l-14.70824,0l-10.66563,6.80596c-0.43007,0.27592 -0.94614,-0.18394 -0.86013,-0.64381l1.54824,-6.16216l-4.73072,0c-1.2902,0 -2.40837,-1.19564 -2.40837,-2.57523l0,-19.68211c0,-1.37959 1.11817,-2.57523 2.40837,-2.57523l29.33047,0c1.2902,0 2.40837,1.19564 2.40837,2.57523l0,19.77408c0.08601,1.37959 -1.03216,2.48326 -2.32235,2.48326z" class="st3"/>
    <g stroke="null">
     <path stroke="null" fill="#FFFFFF" d="m317.61499,514.74082c-1.03216,0 -1.80628,0.91972 -1.80628,1.93142s0.86013,1.93142 1.80628,1.93142c1.03216,0 1.80628,-0.91972 1.80628,-1.93142s-0.77412,-1.93142 -1.80628,-1.93142z" class="st4"/>
     <path stroke="null" fill="#FFFFFF" d="m310.21787,514.74082c-1.03216,0 -1.80628,0.91972 -1.80628,1.93142s0.86013,1.93142 1.80628,1.93142c1.03216,0 1.80628,-0.91972 1.80628,-1.93142s-0.77412,-1.93142 -1.80628,-1.93142z" class="st4"/>
     <path stroke="null" fill="#FFFFFF" d="m325.01212,514.74082c-1.03216,0 -1.80628,0.91972 -1.80628,1.93142s0.86013,1.93142 1.80628,1.93142c1.03216,0 1.80628,-0.91972 1.80628,-1.93142s-0.77412,-1.93142 -1.80628,-1.93142z" class="st4"/>
    </g>
    <g stroke="null">
     <path stroke="null" fill="#F87474" d="m291.46701,509.1305l-7.56915,0c-2.32235,0 -4.21464,2.02339 -4.21464,4.50665l0,18.02661c0,2.48326 1.89229,4.50665 4.21464,4.50665l7.56915,0c1.63425,0 2.92445,-1.37959 2.92445,-3.12706l0,-20.87775c-0.08601,-1.6555 -1.37621,-3.03509 -2.92445,-3.03509z" class="st2"/>
     <path stroke="null" fill="#F87474" d="m351.33213,509.1305l-7.56915,0c-1.63425,0 -2.92445,1.37959 -2.92445,3.12706l0,20.78578c0,1.74748 1.2902,3.12706 2.92445,3.12706l7.56915,0c2.32235,0 4.21464,-2.02339 4.21464,-4.50665l0,-18.11858c0,-2.48326 -1.89229,-4.41468 -4.21464,-4.41468z" class="st2"/>
    </g>
   </g>
  </g>
  <g stroke="null">
   <g stroke="null">
    <g stroke="null">
     <g stroke="null">
      <path stroke="null" fill="#448FFC" d="m325.03366,228.225l-2.14431,0l0,6.78347l2.14431,0c1.19128,0 2.22373,-0.76219 2.22373,-1.75303l0,-3.35363c0,-0.91463 -0.95303,-1.67681 -2.22373,-1.67681z" class="st0"/>
      <path stroke="null" fill="#448FFC" d="m293.6632,229.90182l0,3.35363c0,0.91463 0.95303,1.75303 2.22373,1.75303l2.14431,0l0,-6.78347l-2.14431,0c-1.2707,0 -2.22373,0.76219 -2.22373,1.67681z" class="st0"/>
     </g>
     <path stroke="null" fill="#F99653" d="m338.77312,280.51108l-56.62566,0l0,-21.87479c0,-3.50606 2.62082,-6.63103 6.51235,-7.77431l16.28087,-4.72556c3.65327,-1.06706 7.46537,-1.06706 10.95981,0l16.28087,4.72556c3.89153,1.14328 6.51235,4.26825 6.51235,7.77431l0.07942,21.87479l0,0z" class="st1"/>
     <rect stroke="null" fill="#FFD551" y="261.68504" x="314.23269" width="9.45085" height="1.98169" class="st2"/>
     <rect stroke="null" fill="#EDBF9A" y="236.60907" x="304.46417" width="11.99225" height="16.00594" class="st3"/>
     <path stroke="null" fill="#FFD9B6" d="m324.08063,228.68232c0,8.84138 -6.11525,17.83519 -13.58063,17.83519s-13.66005,-9.07003 -13.66005,-17.83519s6.11525,-14.17669 13.66005,-14.17669s13.58063,5.33531 13.58063,14.17669z" class="st4"/>
     <g stroke="null">
      <path stroke="null" fill="#E08344" d="m295.17216,264.65757l-0.39709,0c-0.39709,0 -0.79419,0.30488 -0.79419,0.76219l0,15.0151l2.06489,0l0,-14.93888c-0.07942,-0.45731 -0.47651,-0.83841 -0.87361,-0.83841z" class="st5"/>
      <path stroke="null" fill="#E08344" d="m326.22494,264.65757l-0.39709,0c-0.39709,0 -0.79419,0.30488 -0.79419,0.76219l0,15.0151l2.06489,0l0,-14.93888c-0.07942,-0.45731 -0.39709,-0.83841 -0.87361,-0.83841z" class="st5"/>
      <polygon stroke="null" fill="#E08344" points="316.4564208984375,247.27972412109375 310.5,252.46258544921875 304.46417236328125,247.27972412109375 303.5905456542969,246.51754760742188 297.2370300292969,248.34674072265625 306.6878967285156,256.578369140625 310.5,252.61505126953125 314.2326965332031,256.578369140625 323.7629699707031,248.34674072265625 317.33001708984375,246.51754760742188 " class="st5"/>
     </g>
     <g stroke="null">
      <path stroke="null" fill="#448FFC" d="m315.90048,240.57244c-0.95303,0 -1.19128,0 -2.38257,-0.07622l-1.19128,0l0,-0.91463l1.19128,0c5.4799,0.15244 7.30654,0.22866 8.97433,-1.14328c1.74722,-1.37194 1.42954,-4.878 1.42954,-4.95422l0.95303,-0.07622c0,0.15244 0.39709,4.03959 -1.74722,5.71641c-1.58838,1.29572 -3.65327,1.44816 -7.22712,1.44816z" class="st0"/>
     </g>
     <path stroke="null" fill="#F99653" d="m314.55036,241.63951l-3.25617,0c-0.47651,0 -0.87361,-0.38109 -0.87361,-0.83841l0,-1.14328c0,-0.45731 0.39709,-0.83841 0.87361,-0.83841l3.25617,0c0.47651,0 0.87361,0.38109 0.87361,0.83841l0,1.14328c0.07942,0.38109 -0.31768,0.83841 -0.87361,0.83841z" class="st1"/>
     <path stroke="null" fill="#3F3F3F" d="m324.08063,220.29825c0,-4.03959 -2.14431,-4.19203 -2.14431,-4.19203l-3.33559,-0.38109c-0.63535,-0.07622 -1.11186,-0.53353 -1.19128,-1.14328c-0.39709,-2.05791 -1.98547,-1.82925 -1.98547,-1.82925s-11.03922,0 -14.53365,1.29572c-4.05036,1.52438 -5.00339,4.19203 -5.00339,6.40238c0,4.49691 1.19128,12.5761 1.90605,14.40535c0.15884,0.38109 0.87361,0.30488 0.87361,-0.15244l0,-6.02128c0,-0.38109 0.31768,-0.68597 0.71477,-0.68597l15.40726,0c0.39709,0 0.71477,-0.30488 0.71477,-0.68597l0,-1.44816c0,-0.38109 0.31768,-0.68597 0.71477,-0.68597s0.63535,0.30488 0.63535,0.68597l0,1.44816c0,0.38109 0.31768,0.68597 0.71477,0.68597l3.97094,0c0.39709,0 0.71477,0.30488 0.71477,0.68597l0,5.79263c0,0.45731 0.87361,0.45731 1.03245,0.07622c0.55593,-1.90547 0.87361,-3.81094 0.87361,-5.79263c0,-0.83841 -0.07942,-6.0975 -0.07942,-8.46028z" class="st6"/>
    </g>
    <path stroke="null" fill="#EFEEED" d="m288.65981,255.05401l43.60096,0c1.50896,0 2.70024,1.2195 2.5414,2.66766l-1.58838,23.62782l-45.4276,0l-1.58838,-23.62782c-0.15884,-1.44816 0.95303,-2.66766 2.46199,-2.66766z" class="st7"/>
    <g stroke="null">
     <path stroke="null" fill="#80B2F9" d="m313.35908,275.40442c0,-1.2195 -0.79419,-2.21034 -1.90605,-2.59144l0,2.13413c0,0.45731 -0.31768,0.91463 -0.87361,0.91463c-0.55593,0.07622 -1.11186,-0.38109 -1.11186,-0.91463l0,-2.13413c-1.19128,0.38109 -1.98547,1.52438 -1.90605,2.82009c0.07942,1.06706 0.87361,1.98169 1.90605,2.36278l0,2.82009l1.90605,0l0,-2.82009c1.19128,-0.30488 1.98547,-1.37194 1.98547,-2.59144z" class="st8"/>
     <path stroke="null" fill="#80B2F9" d="m318.83898,277.61476l1.90605,0l0,-4.11581l-1.90605,0c-0.23826,-0.76219 -0.47651,-1.52438 -0.95303,-2.13413l1.35012,-1.29572l-3.01792,-2.97253l-1.35012,1.29572c-0.71477,-0.38109 -1.42954,-0.68597 -2.22373,-0.91463l0,-1.82925l-4.28862,0l0,1.82925c-0.79419,0.22866 -1.50896,0.45731 -2.22373,0.91463l-1.35012,-1.29572l-3.01792,2.89631l1.35012,1.29572c-0.39709,0.68597 -0.71477,1.37194 -0.95303,2.13413l-1.90605,0l0,4.11581l1.90605,0c0.15884,0.68597 0.47651,1.29572 0.79419,1.90547c0,0.07622 0.07942,0.15244 0.15884,0.22866l-1.35012,1.29572l2.30315,2.21034l1.42954,0l0.63535,-0.60975c0.39709,0.22866 0.87361,0.45731 1.2707,0.60975l6.19467,0c0.47651,-0.15244 0.87361,-0.38109 1.2707,-0.60975l0.63535,0.60975l1.42954,0l2.38257,-2.21034l-1.35012,-1.29572c0.07942,-0.07622 0.07942,-0.15244 0.15884,-0.30488c0.31768,-0.53353 0.55593,-1.14328 0.71477,-1.75303zm-7.38596,2.36278c-0.31768,0.07622 -0.63535,0.07622 -0.95303,0.07622c-0.31768,0 -0.63535,0 -0.95303,-0.07622c-0.47651,-0.07622 -0.95303,-0.30488 -1.42954,-0.53353c-1.42954,-0.76219 -2.38257,-2.28656 -2.38257,-3.96338c0,-2.51522 2.14431,-4.57313 4.76513,-4.57313s4.76513,2.05791 4.76513,4.57313c0,1.67681 -0.95303,3.12497 -2.38257,3.96338c-0.39709,0.22866 -0.95303,0.45731 -1.42954,0.53353z" class="st8"/>
    </g>
    <path stroke="null" fill="#448FFC" d="m343.3,281.34948c0,0.53353 -0.23826,0.99084 -0.55593,1.37194c-0.31768,0.38109 -0.87361,0.53353 -1.42954,0.53353l-61.62905,0c-1.11186,0 -1.98547,-0.83841 -1.98547,-1.90547c0,-0.53353 0.23826,-0.99084 0.55593,-1.37194c0.31768,-0.38109 0.87361,-0.53353 1.42954,-0.53353l61.62905,0c1.11186,0 1.98547,0.83841 1.98547,1.90547z" class="st0"/>
   </g>
  </g>
  <g stroke="null">
   <g stroke="null">
    <path stroke="null" fill="#4D96FF" d="m600.47477,309.43207l0,-11.20763c0,-1.41133 -1.06427,-2.49058 -2.45601,-2.49058l-3.52028,0c-0.65494,-2.49058 -1.63734,-4.98117 -2.94721,-7.05665l2.45601,-2.49058c0.9824,-0.99623 0.9824,-2.5736 0,-3.48682l-6.14002,-6.30948c-0.9824,-0.99623 -2.53787,-0.99623 -3.52028,0l-2.45601,2.49058c-2.21041,-1.32831 -4.50268,-2.32455 -6.95869,-2.9887l0,-3.56984c0,-1.41133 -1.06427,-2.49058 -2.45601,-2.49058l-8.59602,0c-1.39174,0 -2.45601,1.07925 -2.45601,2.49058l0,3.56984c-2.45601,0.66416 -4.91201,1.66039 -6.95869,2.9887l-2.53787,-2.5736c-0.9824,-0.99623 -2.53787,-0.91321 -3.43841,0l-6.14002,6.22646c-0.9824,0.99623 -0.9824,2.5736 0,3.48682l2.45601,2.49058c-1.30987,2.24153 -2.29227,4.56607 -2.94721,7.05665l-3.52028,0c-1.39174,0 -2.45601,1.07925 -2.45601,2.49058l0,8.80006c0,1.41133 1.06427,2.49058 2.45601,2.49058l3.52028,0c0.65494,2.49058 1.63734,4.98117 2.94721,7.05665l-2.53787,2.5736c-0.9824,0.99623 -0.90054,2.5736 0,3.48682l6.14002,6.22646c0.9824,0.99623 2.53787,0.99623 3.43841,0l2.45601,-2.49058c2.21041,1.32831 4.50268,2.32455 6.95869,2.9887l0,3.56984c0,1.41133 1.06427,2.49058 2.45601,2.49058l8.67789,0c1.39174,0 2.45601,-1.07925 2.45601,-2.49058l0,-3.56984c2.45601,-0.66416 4.91201,-1.66039 6.95869,-2.9887l2.45601,2.49058c0.9824,0.99623 2.53787,0.99623 3.43841,0l6.22188,-6.22646c0.9824,-0.99623 0.9824,-2.5736 0,-3.56984l-2.45601,-2.49058c1.30987,-2.24153 2.29227,-4.56607 2.94721,-7.05665l6.05815,0.08302l0,0zm-32.25556,10.87555c-9.66029,0 -17.43765,-7.88685 -17.43765,-17.68315s7.77736,-17.68315 17.43765,-17.68315s17.43765,7.88685 17.43765,17.68315s-7.85922,17.68315 -17.43765,17.68315z" class="st0"/>
    <path stroke="null" fill="#FFD07A" d="m577.06084,293.16025c-3.92961,-3.98493 -9.74216,-4.89815 -14.57231,-2.49058l6.95869,7.05665c1.55547,1.57737 1.80107,4.06795 0.40933,5.89438c-1.63734,2.07549 -4.66641,2.24153 -6.38562,0.4151l-7.12242,-7.22269c-2.45601,5.14721 -1.228,11.62273 3.43841,15.60766c3.76588,3.23776 9.16909,3.8189 13.58991,1.66039l21.20353,26.23415c2.86534,3.56984 8.10482,3.8189 11.29763,0.58114l0,0c3.19281,-3.23776 2.94721,-8.551 -0.57307,-11.45669l-25.78807,-21.50204c2.37414,-4.89815 1.4736,-10.79253 -2.45601,-14.77746zm26.36114,45.16259c-1.55547,1.57737 -4.17521,1.57737 -5.73068,0c-1.55547,-1.57737 -1.55547,-4.23399 0,-5.81136s4.17521,-1.57737 5.73068,0c1.55547,1.57737 1.55547,4.15097 0,5.81136z" class="st1"/>
   </g>
  </g>
  <g stroke="null">
   <g stroke="null">
    <path stroke="null" fill="#3AB0FF" d="m723.77586,499.96249l-64.55173,0c-2.06897,0 -3.72414,1.81272 -3.72414,4.07862l0,39.24538c0,2.2659 1.65517,4.07862 3.72414,4.07862l24.9931,0l6.2069,10.06059c0.49655,0.81572 1.65517,0.81572 2.15172,0l6.2069,-10.06059l24.9931,0c2.06897,0 3.72414,-1.81272 3.72414,-4.07862l0,-39.24538c0,-2.2659 -1.65517,-4.07862 -3.72414,-4.07862z" class="st0"/>
    <g stroke="null">
     <path stroke="null" fill="#FFFFFF" d="m662.86552,525.88438l5.21379,0c0.57931,0 1.07586,-0.54382 1.07586,-1.17827s-0.49655,-1.17827 -1.07586,-1.17827l-5.21379,0c-0.57931,0 -1.07586,0.54382 -1.07586,1.17827s0.49655,1.17827 1.07586,1.17827z" class="st1"/>
     <path stroke="null" fill="#FFFFFF" d="m672.13448,525.88438l48,0c0.57931,0 1.07586,-0.54382 1.07586,-1.17827s-0.49655,-1.17827 -1.07586,-1.17827l-48,0c-0.57931,0 -1.07586,0.54382 -1.07586,1.17827s0.49655,1.17827 1.07586,1.17827z" class="st1"/>
     <path stroke="null" fill="#FFFFFF" d="m720.13448,528.24092l-57.26897,0c-0.57931,0 -1.07586,0.54382 -1.07586,1.17827s0.49655,1.17827 1.07586,1.17827l57.26897,0c0.57931,0 1.07586,-0.54382 1.07586,-1.17827s-0.49655,-1.17827 -1.07586,-1.17827z" class="st1"/>
     <path stroke="null" fill="#FFFFFF" d="m720.13448,532.95399l-57.26897,0c-0.57931,0 -1.07586,0.54382 -1.07586,1.17827c0,0.63445 0.49655,1.17827 1.07586,1.17827l57.26897,0c0.57931,0 1.07586,-0.54382 1.07586,-1.17827c0,-0.63445 -0.49655,-1.17827 -1.07586,-1.17827z" class="st1"/>
     <path stroke="null" fill="#FFFFFF" d="m720.13448,537.66706l-57.26897,0c-0.57931,0 -1.07586,0.54382 -1.07586,1.17827c0,0.63445 0.49655,1.17827 1.07586,1.17827l57.26897,0c0.57931,0 1.07586,-0.54382 1.07586,-1.17827c0,-0.63445 -0.49655,-1.17827 -1.07586,-1.17827z" class="st1"/>
    </g>
    <circle stroke="null" fill="#FFB225" r="5.04826" cy="512.74217" cx="666.83793" class="st2"/>
    <g stroke="null">
     <path stroke="null" fill="#FFD63E" d="m681.9,511.74517l-1.98621,-0.27191l-0.91034,-1.99399c-0.08276,-0.18127 -0.24828,-0.18127 -0.33103,0l-0.91034,1.99399l-2.06897,0.27191c-0.16552,0 -0.24828,0.27191 -0.08276,0.36254l1.48966,1.54081l-0.33103,2.2659c0,0.18127 0.16552,0.27191 0.24828,0.27191l1.82069,-1.08763l1.82069,1.08763c0.16552,0.09064 0.33103,-0.09064 0.24828,-0.27191l-0.33103,-2.2659l1.48966,-1.54081c0.08276,-0.09064 0,-0.27191 -0.16552,-0.36254z" class="st3"/>
     <path stroke="null" fill="#FFD63E" d="m690.58965,511.74517l-2.06897,-0.36254l-0.91034,-1.99399c-0.08276,-0.18127 -0.24828,-0.18127 -0.33103,0l-0.91034,1.99399l-2.06897,0.36254c-0.16552,0 -0.24828,0.27191 -0.08276,0.36254l1.48966,1.54081l-0.33103,2.2659c0,0.18127 0.16552,0.27191 0.24828,0.27191l1.82069,-1.08763l1.82069,1.08763c0.16552,0.09064 0.33103,-0.09064 0.24828,-0.27191l-0.33103,-2.2659l1.48966,-1.54081c0.08276,-0.09064 0.08276,-0.27191 -0.08276,-0.36254z" class="st3"/>
     <path stroke="null" fill="#FFD63E" d="m699.19655,511.74517l-2.06897,-0.36254l-0.91034,-1.99399c-0.08276,-0.18127 -0.24828,-0.18127 -0.33103,0l-0.91034,1.99399l-2.06897,0.36254c-0.16552,0 -0.24828,0.27191 -0.08276,0.36254l1.48966,1.54081l-0.33103,2.2659c0,0.18127 0.16552,0.27191 0.24828,0.27191l1.82069,-1.08763l1.82069,1.08763c0.16552,0.09064 0.33103,-0.09064 0.24828,-0.27191l-0.33103,-2.2659l1.48966,-1.54081c0.16552,-0.09064 0.08276,-0.27191 -0.08276,-0.36254z" class="st3"/>
     <path stroke="null" fill="#FFD63E" d="m707.80345,511.74517l-2.06897,-0.36254l-0.91034,-1.99399c-0.08276,-0.18127 -0.24828,-0.18127 -0.33103,0l-0.91034,1.99399l-2.06897,0.36254c-0.16552,0 -0.24828,0.27191 -0.08276,0.36254l1.48966,1.54081l-0.33103,2.2659c0,0.18127 0.16552,0.27191 0.24828,0.27191l1.82069,-1.08763l1.82069,1.08763c0.16552,0.09064 0.33103,-0.09064 0.24828,-0.27191l-0.33103,-2.2659l1.48966,-1.54081c0.16552,-0.09064 0.08276,-0.27191 -0.08276,-0.36254z" class="st3"/>
     <path stroke="null" fill="#FFD63E" d="m716.4931,511.74517l-2.06897,-0.36254l-0.91034,-1.99399c-0.08276,-0.18127 -0.24828,-0.18127 -0.33103,0l-0.9931,2.08463l-1.98621,0.27191c-0.16552,0 -0.24828,0.27191 -0.08276,0.36254l1.48966,1.54081l-0.33103,2.2659c0,0.18127 0.16552,0.27191 0.24828,0.27191l1.82069,-1.08763l1.82069,1.08763c0.16552,0.09064 0.33103,-0.09064 0.24828,-0.27191l-0.33103,-2.2659l1.48966,-1.54081c0.08276,-0.09064 0.08276,-0.27191 -0.08276,-0.36254z" class="st3"/>
    </g>
   </g>
  </g>
  <g transform="rotate(-1.38902 363.5 367.5)" stroke="null">
   <g stroke="null">
    <path stroke="null" fill="#6CEF6F" d="m371.97585,383.18564l-3.24589,2.01848c-5.00043,3.14883 -9.73767,4.92509 -12.54493,1.21109l-16.054,-21.55736c-2.89498,-3.87548 0.61409,-7.26652 5.78997,-10.33461l3.24589,-2.01848l-10.96585,-14.85601l-4.64952,2.90661c-8.24632,5.16731 -10.35176,15.34044 -4.73725,22.84918l24.47577,33.02232c5.61451,7.58948 16.66809,9.52722 24.82668,4.35991l4.64952,-2.90661l-10.79039,-14.69453z" class="st0"/>
    <g stroke="null">
     <path stroke="null" fill="#66DD66" d="m350.74597,350.40554l-9.73767,-12.999c-1.57908,-2.17996 -4.82497,-2.74513 -7.1936,-1.21109l0,0c-2.36862,1.4533 -2.98271,4.44065 -1.3159,6.62061l9.64995,12.999c1.57908,2.17996 4.82497,2.74513 7.1936,1.21109l0,0c2.36862,-1.53404 2.98271,-4.44065 1.40363,-6.62061z" class="st1"/>
     <path stroke="null" fill="#66DD66" d="m384.16987,395.61947l-9.73767,-13.07974c-1.57908,-2.17996 -4.82497,-2.74513 -7.1936,-1.21109l0,0c-2.36862,1.4533 -2.98271,4.44065 -1.3159,6.62061l9.73767,12.999c1.57908,2.17996 4.82497,2.74513 7.1936,1.21109l0,0c2.36862,-1.4533 2.98271,-4.35991 1.3159,-6.53987z" class="st1"/>
    </g>
    <path stroke="null" fill="#3DB2FF" d="m401.10114,354.52324c-1.57908,10.01166 -11.22903,17.60114 -22.19487,17.35892c-3.07044,-0.08074 -6.05315,-0.72665 -8.68495,-1.77626c-1.40363,-0.56517 -7.10587,1.4533 -10.43949,2.66439c-0.87727,0.32296 -1.75454,-0.48443 -1.3159,-1.29183c1.40363,-2.66439 3.5968,-7.10505 2.89498,-7.91244c-3.33362,-4.27918 -4.82497,-9.6887 -3.85998,-15.42118c1.84226,-10.01166 11.84312,-17.35892 22.80896,-16.79374c13.07129,0.56517 22.63351,11.30348 20.79125,23.17214z" class="st2"/>
    <g stroke="null">
     <path stroke="null" fill="#FFFFFF" d="m379.78353,357.67207l-2.19317,0c-0.70181,0 -1.22817,-0.56517 -1.22817,-1.13035l0,0c0,-1.37257 0.26318,-2.50291 0.70181,-3.39104c0.52636,-0.88813 1.49136,-1.857 2.98271,-2.98735c1.49136,-1.13035 2.36862,-1.857 2.6318,-2.17996c0.43863,-0.56517 0.70181,-1.13035 0.70181,-1.857c0,-0.88813 -0.43863,-1.69552 -1.14045,-2.34144c-0.78954,-0.64591 -1.84226,-0.96887 -3.24589,-0.96887c-1.3159,0 -2.36862,0.32296 -3.24589,0.96887c-0.52636,0.4037 -0.87727,0.88813 -1.22817,1.53404c-0.43863,0.88813 -1.40363,1.4533 -2.45635,1.37257l0,0c-1.66681,-0.24222 -2.6318,-1.857 -1.84226,-3.22957c0.43863,-0.72665 1.05272,-1.4533 1.84226,-2.09922c1.75454,-1.37257 3.94771,-2.01848 6.66724,-2.01848c2.89498,0 5.17588,0.64591 6.93042,2.09922c1.75454,1.37257 2.54408,3.06809 2.54408,4.84435c0,1.04961 -0.35091,1.93774 -0.87727,2.90661c-0.61409,0.88813 -2.01772,2.17996 -4.03543,3.714c-1.05272,0.80739 -1.75454,1.4533 -2.01772,1.93774c-0.17545,0.4037 -0.35091,0.88813 -0.35091,1.69552c0,0.64591 -0.43863,1.13035 -1.14045,1.13035zm-3.33362,4.03696l0,-0.24222c0,-1.21109 1.05272,-2.17996 2.36862,-2.17996l0.26318,0c1.3159,0 2.36862,0.96887 2.36862,2.17996l0,0.24222c0,1.21109 -1.05272,2.17996 -2.36862,2.17996l-0.26318,0c-1.3159,0 -2.36862,-0.96887 -2.36862,-2.17996z" class="st3"/>
    </g>
   </g>
  </g>
 </g>

</svg>