<svg xmlns="http://www.w3.org/2000/svg" width="202" height="202" viewBox="0 0 202 202" fill="none"><circle cx="101" cy="105" r="80" fill="#F5F8FF"></circle><g filter="url(#filter0_dd_23673_115530)"><path d="M53.6602 39.0832C53.6602 37.3804 55.0491 36 56.7624 36H117.955C118.778 36 119.567 36.3248 120.149 36.9028L138.24 54.8793C138.821 55.4575 139.148 56.2418 139.148 57.0596V145.749C139.148 147.452 137.759 148.833 136.046 148.833H56.7624C55.0491 148.833 53.6602 147.452 53.6602 145.749V39.0832Z" fill="white"></path><path d="M120.132 57.3125L133.241 57.3125C134.854 57.3125 135.661 55.3627 134.521 54.2223L121.412 41.1146C120.271 39.9743 118.321 40.7819 118.321 42.3946L118.321 55.5023C118.321 56.5021 119.132 57.3125 120.132 57.3125Z" fill="#EDF1F6"></path></g><path d="M69.2031 111.372L72.6192 114.826L80.3055 107.055" stroke="#000C36" stroke-width="4" stroke-linecap="round"></path><path d="M69.2031 90.2785L72.6192 93.7326L80.3055 85.9609" stroke="#000C36" stroke-width="4" stroke-linecap="round"></path><path d="M69.2031 131.357L72.6192 134.811L80.3055 127.039" stroke="#000C36" stroke-width="4" stroke-linecap="round"></path><path d="M92.5195 89.293H119.165" stroke="#D2DCE4" stroke-width="5" stroke-linecap="round"></path><path d="M92.5195 54.875L70.3148 54.875" stroke="#EDF1F6" stroke-width="5" stroke-linecap="round"></path><path d="M110.281 69.3086L70.3127 69.3086" stroke="#EDF1F6" stroke-width="5" stroke-linecap="round"></path><path d="M92.5195 110.387H109.173" stroke="#D2DCE4" stroke-width="5" stroke-linecap="round"></path><path d="M92.5195 130.371H109.173" stroke="#D2DCE4" stroke-width="5" stroke-linecap="round"></path><path d="M142.48 156.509L132.337 176.998L124.63 165.324H109.173L122.72 144.801L132.337 153.323L142.48 156.509Z" fill="#9FC0FF"></path><path d="M148.031 156.509L158.175 176.998L165.882 165.324H181.338L167.791 144.801L148.031 156.509Z" fill="#9FC0FF"></path><ellipse cx="145.255" cy="131.478" rx="27.2008" ry="26.6457" fill="#3D7FFC"></ellipse><path d="M166.516 131.478C166.516 142.878 157.033 152.183 145.256 152.183C133.479 152.183 123.996 142.878 123.996 131.478C123.996 120.078 133.479 110.773 145.256 110.773C157.033 110.773 166.516 120.078 166.516 131.478Z" fill="#3D7FFC" stroke="#9FC0FF" stroke-width="3"></path><path d="M136.93 132.094L142.395 137.028L154.693 125.926" stroke="white" stroke-width="3" stroke-linecap="round"></path><defs><filter id="filter0_dd_23673_115530" x="46.6602" y="29" width="107.488" height="134.833" filterUnits="userSpaceOnUse" color-interpolation-filters="sRGB"><feFlood flood-opacity="0" result="BackgroundImageFix"></feFlood><feColorMatrix in="SourceAlpha" type="matrix" values="0 0 0 0 0 0 0 0 0 0 0 0 0 0 0 0 0 0 127 0" result="hardAlpha"></feColorMatrix><feOffset dx="5" dy="5"></feOffset><feGaussianBlur stdDeviation="5"></feGaussianBlur><feColorMatrix type="matrix" values="0 0 0 0 0 0 0 0 0 0.296699 0 0 0 0 0.858629 0 0 0 0.08 0"></feColorMatrix><feBlend mode="normal" in2="BackgroundImageFix" result="effect1_dropShadow_23673_115530"></feBlend><feColorMatrix in="SourceAlpha" type="matrix" values="0 0 0 0 0 0 0 0 0 0 0 0 0 0 0 0 0 0 127 0" result="hardAlpha"></feColorMatrix><feOffset></feOffset><feGaussianBlur stdDeviation="3.5"></feGaussianBlur><feComposite in2="hardAlpha" operator="out"></feComposite><feColorMatrix type="matrix" values="0 0 0 0 0.0354167 0 0 0 0 0.105426 0 0 0 0 0.2125 0 0 0 0.07 0"></feColorMatrix><feBlend mode="normal" in2="effect1_dropShadow_23673_115530" result="effect2_dropShadow_23673_115530"></feBlend><feBlend mode="normal" in="SourceGraphic" in2="effect2_dropShadow_23673_115530" result="shape"></feBlend></filter></defs></svg>