<svg xmlns="http://www.w3.org/2000/svg" width="217" height="212" viewBox="0 0 217 212" fill="none"><circle cx="102" cy="107" r="80" fill="#F5F8FF"></circle><g filter="url(#filter0_dd_23673_115592)"><circle cx="102.327" cy="107.646" r="42.3269" fill="white"></circle></g><path d="M96.4351 83.1588C97.2583 84.7228 96.8467 86.0399 96.2705 87.4393C95.365 89.7442 95.6119 91.9668 97.2583 93.8601C98.9046 95.8357 101.21 96.0826 103.597 95.5887C106.889 94.8479 108.783 91.7198 108.289 88.2625C108.042 86.6161 107.054 84.9698 107.96 83.1588C107.136 83.5704 107.136 83.5704 106.149 85.2167C105.243 84.1466 104.42 82.9942 103.432 81.8417C102.609 80.9362 101.786 80.1131 102.28 78.6313C101.292 79.1253 100.798 79.7838 100.469 80.607C100.222 81.4301 100.057 82.2533 99.8924 83.0765C99.7278 83.8997 99.3162 84.6405 98.493 85.1344C97.9991 84.2289 97.5052 83.5704 96.4351 83.1588Z" fill="#3D7FFC"></path><path d="M94.4888 133.875V129.849L98.8507 129.282V106.26L94.8287 104.956V100.476L105.819 99.0016L108.141 98.772V100.306V129.226L112.447 129.849V133.875H94.4888Z" fill="#3D7FFC"></path><g filter="url(#filter1_dd_23673_115592)"><circle cx="28.7485" cy="94.7485" r="21.7485" fill="#3D7FFC"></circle></g><path d="M28.1831 104.688C26.5203 104.688 24.9257 104.028 23.75 102.852C22.5742 101.676 21.9136 100.082 21.9136 98.4188H26.0932C26.0932 98.9731 26.3134 99.5047 26.7054 99.8966C27.0973 100.289 27.6288 100.509 28.1831 100.509C28.7373 100.509 29.269 100.289 29.6609 99.8966C30.0528 99.5047 30.2729 98.9731 30.2729 98.4188C30.2729 97.679 29.0191 96.9936 27.249 96.12C24.9982 94.9832 21.9136 93.4409 21.9136 90.0595C21.9136 88.3968 22.5742 86.8021 23.75 85.6263C24.9257 84.4506 26.5203 83.79 28.1831 83.79C29.8458 83.79 31.4405 84.4506 32.6163 85.6263C33.7921 86.8021 34.4526 88.3968 34.4526 90.0595H30.2729C30.2729 89.5053 30.0528 88.9737 29.6609 88.5818C29.269 88.1899 28.7373 87.9697 28.1831 87.9697C27.6288 87.9697 27.0973 88.1899 26.7054 88.5818C26.3134 88.9737 26.0932 89.5053 26.0932 90.0595C26.0932 90.7993 27.3472 91.4848 29.1173 92.3583C31.368 93.4952 34.4526 95.0375 34.4526 98.4188C34.4526 100.082 33.7921 101.676 32.6163 102.852C31.4405 104.028 29.8458 104.688 28.1831 104.688Z" fill="white"></path><path d="M30.2729 81.6963H26.0933V85.876H30.2729V81.6963Z" fill="white"></path><path d="M30.2729 102.595H26.0933V106.774H30.2729V102.595Z" fill="white"></path><g filter="url(#filter2_dd_23673_115592)"><circle cx="179.748" cy="94.7485" r="21.7485" fill="#3D7FFC"></circle></g><circle cx="179.748" cy="94.7444" r="13.0491" fill="white"></circle><path d="M181.407 85.6143H178.454V94.4717H181.407V85.6143Z" fill="#3D7FFC"></path><path d="M181.406 92.9971H174.763V95.9496H181.406V92.9971Z" fill="#3D7FFC"></path><g filter="url(#filter3_dd_23673_115592)"><circle cx="104.531" cy="28.7485" r="21.7485" fill="#3D7FFC"></circle></g><circle cx="105.152" cy="21.917" r="6.21385" fill="white"></circle><path d="M93.9658 39.3127C93.9658 34.5081 97.8607 30.6133 102.665 30.6133H107.636C112.441 30.6133 116.336 34.5081 116.336 39.3127H93.9658Z" fill="white"></path><g filter="url(#filter4_dd_23673_115592)"><circle cx="60.3378" cy="174.748" r="21.7485" fill="#3D7FFC"></circle></g><path d="M54.8971 172.385V170.721C54.8971 169.397 55.423 168.128 56.359 167.192C57.2949 166.256 58.5644 165.73 59.8881 165.73C61.2118 165.73 62.4812 166.256 63.4172 167.192C64.3532 168.128 64.879 169.397 64.879 170.721V176.821H67.0974V170.721C67.0974 168.809 66.3379 166.975 64.9859 165.623C63.634 164.271 61.8003 163.512 59.8883 163.512C57.9763 163.512 56.1427 164.271 54.7907 165.623C53.4387 166.975 52.6792 168.809 52.6792 170.721V172.385H54.8971Z" fill="white"></path><path d="M51.0151 172.387V185.696H68.7605V172.387H51.0151ZM59.8878 180.705C59.5588 180.705 59.2371 180.607 58.9635 180.425C58.6899 180.242 58.4767 179.982 58.3508 179.678C58.2249 179.374 58.1919 179.039 58.2561 178.717C58.3203 178.394 58.4788 178.098 58.7114 177.865C58.9441 177.632 59.2405 177.474 59.5633 177.41C59.886 177.345 60.2205 177.378 60.5245 177.504C60.8285 177.63 61.0883 177.843 61.2711 178.117C61.4539 178.391 61.5515 178.712 61.5515 179.041C61.5515 179.482 61.3762 179.906 61.0642 180.218C60.7522 180.53 60.329 180.705 59.8878 180.705Z" fill="white"></path><g filter="url(#filter5_dd_23673_115592)"><circle cx="148.725" cy="174.748" r="21.7485" fill="#3D7FFC"></circle></g><path d="M157.565 176.026L160.029 177.897C160.147 177.977 160.23 178.1 160.26 178.239C160.291 178.378 160.267 178.524 160.193 178.646L157.839 182.604C157.814 182.662 157.778 182.715 157.732 182.76C157.686 182.804 157.633 182.84 157.573 182.863C157.514 182.887 157.451 182.898 157.387 182.897C157.323 182.897 157.261 182.883 157.202 182.858C157.176 182.847 157.15 182.833 157.126 182.817L154.222 181.694C153.605 182.135 152.944 182.511 152.249 182.817L151.812 185.811C151.776 186.132 151.574 186.292 151.21 186.292H146.555C146.412 186.304 146.269 186.261 146.157 186.171C146.045 186.082 145.972 185.953 145.952 185.811L145.515 182.816C144.813 182.527 144.15 182.149 143.543 181.693L140.638 182.816C140.515 182.878 140.372 182.891 140.24 182.851C140.107 182.811 139.995 182.723 139.926 182.603L137.572 178.645C137.498 178.523 137.474 178.378 137.505 178.239C137.535 178.099 137.618 177.977 137.736 177.897L140.2 176.026C140.164 175.599 140.143 175.224 140.143 174.903C140.143 174.582 140.161 174.208 140.2 173.78L137.736 171.909C137.618 171.829 137.535 171.707 137.505 171.568C137.474 171.428 137.498 171.283 137.572 171.161L139.926 167.202C139.983 167.082 140.085 166.99 140.211 166.946C140.336 166.901 140.474 166.908 140.594 166.966C140.609 166.973 140.624 166.981 140.638 166.989L143.543 168.112C144.16 167.672 144.821 167.295 145.515 166.989L145.952 163.998C145.971 163.855 146.045 163.725 146.157 163.635C146.269 163.545 146.411 163.502 146.555 163.514H151.21C151.575 163.514 151.776 163.674 151.813 163.995L152.25 166.989C152.952 167.28 153.614 167.657 154.222 168.112L157.127 166.989C157.25 166.927 157.393 166.915 157.525 166.954C157.658 166.994 157.77 167.083 157.839 167.202L160.193 171.161C160.266 171.283 160.29 171.428 160.26 171.568C160.229 171.707 160.147 171.829 160.029 171.909L157.564 173.78C157.71 174.522 157.71 175.285 157.565 176.026ZM146.477 177.318C147.035 177.868 147.767 178.208 148.548 178.28C149.329 178.352 150.111 178.152 150.76 177.713C151.41 177.273 151.887 176.623 152.111 175.871C152.335 175.12 152.292 174.314 151.99 173.591C151.687 172.868 151.143 172.271 150.45 171.904C149.757 171.536 148.959 171.42 148.19 171.575C147.421 171.73 146.73 172.146 146.233 172.753C145.737 173.36 145.466 174.12 145.466 174.904C145.461 175.354 145.547 175.801 145.721 176.216C145.894 176.631 146.151 177.006 146.475 177.319L146.477 177.318Z" fill="white"></path><defs><filter id="filter0_dd_23673_115592" x="53" y="58.3193" width="106.654" height="106.654" filterUnits="userSpaceOnUse" color-interpolation-filters="sRGB"><feFlood flood-opacity="0" result="BackgroundImageFix"></feFlood><feColorMatrix in="SourceAlpha" type="matrix" values="0 0 0 0 0 0 0 0 0 0 0 0 0 0 0 0 0 0 127 0" result="hardAlpha"></feColorMatrix><feOffset dx="5" dy="5"></feOffset><feGaussianBlur stdDeviation="5"></feGaussianBlur><feColorMatrix type="matrix" values="0 0 0 0 0 0 0 0 0 0.296699 0 0 0 0 0.858629 0 0 0 0.08 0"></feColorMatrix><feBlend mode="normal" in2="BackgroundImageFix" result="effect1_dropShadow_23673_115592"></feBlend><feColorMatrix in="SourceAlpha" type="matrix" values="0 0 0 0 0 0 0 0 0 0 0 0 0 0 0 0 0 0 127 0" result="hardAlpha"></feColorMatrix><feOffset></feOffset><feGaussianBlur stdDeviation="3.5"></feGaussianBlur><feComposite in2="hardAlpha" operator="out"></feComposite><feColorMatrix type="matrix" values="0 0 0 0 0.0354167 0 0 0 0 0.105426 0 0 0 0 0.2125 0 0 0 0.07 0"></feColorMatrix><feBlend mode="normal" in2="effect1_dropShadow_23673_115592" result="effect2_dropShadow_23673_115592"></feBlend><feBlend mode="normal" in="SourceGraphic" in2="effect2_dropShadow_23673_115592" result="shape"></feBlend></filter><filter id="filter1_dd_23673_115592" x="0" y="66" width="65.4971" height="65.4971" filterUnits="userSpaceOnUse" color-interpolation-filters="sRGB"><feFlood flood-opacity="0" result="BackgroundImageFix"></feFlood><feColorMatrix in="SourceAlpha" type="matrix" values="0 0 0 0 0 0 0 0 0 0 0 0 0 0 0 0 0 0 127 0" result="hardAlpha"></feColorMatrix><feOffset dx="5" dy="5"></feOffset><feGaussianBlur stdDeviation="5"></feGaussianBlur><feColorMatrix type="matrix" values="0 0 0 0 0 0 0 0 0 0.296699 0 0 0 0 0.858629 0 0 0 0.08 0"></feColorMatrix><feBlend mode="normal" in2="BackgroundImageFix" result="effect1_dropShadow_23673_115592"></feBlend><feColorMatrix in="SourceAlpha" type="matrix" values="0 0 0 0 0 0 0 0 0 0 0 0 0 0 0 0 0 0 127 0" result="hardAlpha"></feColorMatrix><feOffset></feOffset><feGaussianBlur stdDeviation="3.5"></feGaussianBlur><feComposite in2="hardAlpha" operator="out"></feComposite><feColorMatrix type="matrix" values="0 0 0 0 0.0354167 0 0 0 0 0.105426 0 0 0 0 0.2125 0 0 0 0.07 0"></feColorMatrix><feBlend mode="normal" in2="effect1_dropShadow_23673_115592" result="effect2_dropShadow_23673_115592"></feBlend><feBlend mode="normal" in="SourceGraphic" in2="effect2_dropShadow_23673_115592" result="shape"></feBlend></filter><filter id="filter2_dd_23673_115592" x="151" y="66" width="65.4971" height="65.4971" filterUnits="userSpaceOnUse" color-interpolation-filters="sRGB"><feFlood flood-opacity="0" result="BackgroundImageFix"></feFlood><feColorMatrix in="SourceAlpha" type="matrix" values="0 0 0 0 0 0 0 0 0 0 0 0 0 0 0 0 0 0 127 0" result="hardAlpha"></feColorMatrix><feOffset dx="5" dy="5"></feOffset><feGaussianBlur stdDeviation="5"></feGaussianBlur><feColorMatrix type="matrix" values="0 0 0 0 0 0 0 0 0 0.296699 0 0 0 0 0.858629 0 0 0 0.08 0"></feColorMatrix><feBlend mode="normal" in2="BackgroundImageFix" result="effect1_dropShadow_23673_115592"></feBlend><feColorMatrix in="SourceAlpha" type="matrix" values="0 0 0 0 0 0 0 0 0 0 0 0 0 0 0 0 0 0 127 0" result="hardAlpha"></feColorMatrix><feOffset></feOffset><feGaussianBlur stdDeviation="3.5"></feGaussianBlur><feComposite in2="hardAlpha" operator="out"></feComposite><feColorMatrix type="matrix" values="0 0 0 0 0.0354167 0 0 0 0 0.105426 0 0 0 0 0.2125 0 0 0 0.07 0"></feColorMatrix><feBlend mode="normal" in2="effect1_dropShadow_23673_115592" result="effect2_dropShadow_23673_115592"></feBlend><feBlend mode="normal" in="SourceGraphic" in2="effect2_dropShadow_23673_115592" result="shape"></feBlend></filter><filter id="filter3_dd_23673_115592" x="75.7822" y="0" width="65.4971" height="65.4971" filterUnits="userSpaceOnUse" color-interpolation-filters="sRGB"><feFlood flood-opacity="0" result="BackgroundImageFix"></feFlood><feColorMatrix in="SourceAlpha" type="matrix" values="0 0 0 0 0 0 0 0 0 0 0 0 0 0 0 0 0 0 127 0" result="hardAlpha"></feColorMatrix><feOffset dx="5" dy="5"></feOffset><feGaussianBlur stdDeviation="5"></feGaussianBlur><feColorMatrix type="matrix" values="0 0 0 0 0 0 0 0 0 0.296699 0 0 0 0 0.858629 0 0 0 0.08 0"></feColorMatrix><feBlend mode="normal" in2="BackgroundImageFix" result="effect1_dropShadow_23673_115592"></feBlend><feColorMatrix in="SourceAlpha" type="matrix" values="0 0 0 0 0 0 0 0 0 0 0 0 0 0 0 0 0 0 127 0" result="hardAlpha"></feColorMatrix><feOffset></feOffset><feGaussianBlur stdDeviation="3.5"></feGaussianBlur><feComposite in2="hardAlpha" operator="out"></feComposite><feColorMatrix type="matrix" values="0 0 0 0 0.0354167 0 0 0 0 0.105426 0 0 0 0 0.2125 0 0 0 0.07 0"></feColorMatrix><feBlend mode="normal" in2="effect1_dropShadow_23673_115592" result="effect2_dropShadow_23673_115592"></feBlend><feBlend mode="normal" in="SourceGraphic" in2="effect2_dropShadow_23673_115592" result="shape"></feBlend></filter><filter id="filter4_dd_23673_115592" x="31.5894" y="146" width="65.4971" height="65.4971" filterUnits="userSpaceOnUse" color-interpolation-filters="sRGB"><feFlood flood-opacity="0" result="BackgroundImageFix"></feFlood><feColorMatrix in="SourceAlpha" type="matrix" values="0 0 0 0 0 0 0 0 0 0 0 0 0 0 0 0 0 0 127 0" result="hardAlpha"></feColorMatrix><feOffset dx="5" dy="5"></feOffset><feGaussianBlur stdDeviation="5"></feGaussianBlur><feColorMatrix type="matrix" values="0 0 0 0 0 0 0 0 0 0.296699 0 0 0 0 0.858629 0 0 0 0.08 0"></feColorMatrix><feBlend mode="normal" in2="BackgroundImageFix" result="effect1_dropShadow_23673_115592"></feBlend><feColorMatrix in="SourceAlpha" type="matrix" values="0 0 0 0 0 0 0 0 0 0 0 0 0 0 0 0 0 0 127 0" result="hardAlpha"></feColorMatrix><feOffset></feOffset><feGaussianBlur stdDeviation="3.5"></feGaussianBlur><feComposite in2="hardAlpha" operator="out"></feComposite><feColorMatrix type="matrix" values="0 0 0 0 0.0354167 0 0 0 0 0.105426 0 0 0 0 0.2125 0 0 0 0.07 0"></feColorMatrix><feBlend mode="normal" in2="effect1_dropShadow_23673_115592" result="effect2_dropShadow_23673_115592"></feBlend><feBlend mode="normal" in="SourceGraphic" in2="effect2_dropShadow_23673_115592" result="shape"></feBlend></filter><filter id="filter5_dd_23673_115592" x="119.976" y="146" width="65.4971" height="65.4971" filterUnits="userSpaceOnUse" color-interpolation-filters="sRGB"><feFlood flood-opacity="0" result="BackgroundImageFix"></feFlood><feColorMatrix in="SourceAlpha" type="matrix" values="0 0 0 0 0 0 0 0 0 0 0 0 0 0 0 0 0 0 127 0" result="hardAlpha"></feColorMatrix><feOffset dx="5" dy="5"></feOffset><feGaussianBlur stdDeviation="5"></feGaussianBlur><feColorMatrix type="matrix" values="0 0 0 0 0 0 0 0 0 0.296699 0 0 0 0 0.858629 0 0 0 0.08 0"></feColorMatrix><feBlend mode="normal" in2="BackgroundImageFix" result="effect1_dropShadow_23673_115592"></feBlend><feColorMatrix in="SourceAlpha" type="matrix" values="0 0 0 0 0 0 0 0 0 0 0 0 0 0 0 0 0 0 127 0" result="hardAlpha"></feColorMatrix><feOffset></feOffset><feGaussianBlur stdDeviation="3.5"></feGaussianBlur><feComposite in2="hardAlpha" operator="out"></feComposite><feColorMatrix type="matrix" values="0 0 0 0 0.0354167 0 0 0 0 0.105426 0 0 0 0 0.2125 0 0 0 0.07 0"></feColorMatrix><feBlend mode="normal" in2="effect1_dropShadow_23673_115592" result="effect2_dropShadow_23673_115592"></feBlend><feBlend mode="normal" in="SourceGraphic" in2="effect2_dropShadow_23673_115592" result="shape"></feBlend></filter></defs></svg>