<svg xmlns="http://www.w3.org/2000/svg" width="202" height="202" viewBox="0 0 202 202" fill="none"><circle cx="104" cy="105" r="80" fill="#F5F8FF"></circle><g opacity="0.2"><path d="M50 35.471C50 34.1063 51.1063 33 52.471 33H154.556C155.921 33 157.027 34.1063 157.027 35.471V105.585C157.027 106.95 155.921 108.056 154.556 108.056H52.471C51.1063 108.056 50 106.95 50 105.585V35.471Z" fill="white"></path><path d="M50 35.6611C50 34.1914 51.1038 33 52.4653 33H154.283C155.644 33 156.748 34.1914 156.748 35.6611V42.2252H50V35.6611Z" fill="#000C36"></path><path d="M60.5435 37.6135C60.5435 38.6967 59.6498 39.5904 58.5667 39.5904C57.4835 39.5904 56.5898 38.6967 56.5898 37.6135C56.5898 36.5303 57.4835 35.6367 58.5667 35.6367C59.6498 35.6367 60.5435 36.5303 60.5435 37.6135Z" fill="#F66058"></path><path d="M68.4497 37.6135C68.4497 38.6967 67.5561 39.5904 66.4729 39.5904C65.3897 39.5904 64.4961 38.6967 64.4961 37.6135C64.4961 36.5303 65.3897 35.6367 66.4729 35.6367C67.5832 35.6367 68.4497 36.5303 68.4497 37.6135Z" fill="#F9BD2E"></path><path d="M76.356 37.6135C76.356 38.6967 75.4624 39.5904 74.3792 39.5904C73.296 39.5904 72.4023 38.6967 72.4023 37.6135C72.4023 36.5303 73.296 35.6367 74.3792 35.6367C75.4624 35.6367 76.356 36.5303 76.356 37.6135Z" fill="#3CC840"></path><path d="M50 41.7578H157.027V57.3254H50V41.7578Z" fill="#EDF1F6"></path><path d="M59.7305 64.1367H147.298V100.137H59.7305V64.1367Z" fill="#EDF1F6"></path><path fill-rule="evenodd" clip-rule="evenodd" d="M61.6758 49.2569C61.6758 47.8012 62.8086 46.6211 64.2061 46.6211H142.504C143.901 46.6211 145.034 47.8012 145.034 49.2569C145.034 50.7125 143.901 51.8926 142.504 51.8926L64.2061 51.8926C62.8086 51.8926 61.6758 50.7125 61.6758 49.2569Z" fill="white"></path></g><g opacity="0.5"><path d="M40 49.764C40 48.1447 41.3127 46.832 42.9319 46.832H164.059C165.678 46.832 166.991 48.1447 166.991 49.764V132.956C166.991 134.575 165.678 135.888 164.059 135.888H42.9319C41.3127 135.888 40 134.575 40 132.956V49.764Z" fill="white"></path><path d="M40 49.9895C40 48.2457 41.3096 46.832 42.9252 46.832H163.734C165.35 46.832 166.66 48.2457 166.66 49.9895V57.7779H40V49.9895Z" fill="#000C36"></path><path d="M52.5114 52.3026C52.5114 53.5878 51.4511 54.6481 50.1659 54.6481C48.8806 54.6481 47.8203 53.5878 47.8203 52.3026C47.8203 51.0173 48.8806 49.957 50.1659 49.957C51.4511 49.957 52.5114 51.0173 52.5114 52.3026Z" fill="#F66058"></path><path d="M61.8903 52.3026C61.8903 53.5878 60.83 54.6481 59.5448 54.6481C58.2595 54.6481 57.1992 53.5878 57.1992 52.3026C57.1992 51.0173 58.2595 49.957 59.5448 49.957C60.8621 49.957 61.8903 51.0173 61.8903 52.3026Z" fill="#F9BD2E"></path><path d="M71.2731 52.3026C71.2731 53.5878 70.2128 54.6481 68.9276 54.6481C67.6424 54.6481 66.582 53.5878 66.582 52.3026C66.582 51.0173 67.6424 49.957 68.9276 49.957C70.2128 49.957 71.2731 51.0173 71.2731 52.3026Z" fill="#3CC840"></path><path d="M40 57.2188H166.991V75.6901H40V57.2188Z" fill="#EDF1F6"></path><path d="M51.543 83.7773H155.445V126.492H51.543V83.7773Z" fill="#EDF1F6"></path><path fill-rule="evenodd" clip-rule="evenodd" d="M53.8555 66.1235C53.8555 64.3963 55.1996 62.9961 56.8578 62.9961H149.76C151.418 62.9961 152.763 64.3963 152.763 66.1235C152.763 67.8507 151.418 69.2509 149.76 69.2509L56.8578 69.2509C55.1996 69.2509 53.8555 67.8507 53.8555 66.1235Z" fill="white"></path></g><g filter="url(#filter0_d_23673_115556)"><path d="M32 65.2885C32 63.4723 33.4723 62 35.2885 62H171.147C172.964 62 174.436 63.4723 174.436 65.2885V158.599C174.436 160.415 172.964 161.887 171.147 161.887H35.2885C33.4723 161.887 32 160.415 32 158.599V65.2885Z" fill="white"></path></g><path d="M32 65.5415C32 63.5856 33.4689 62 35.2809 62H170.784C172.596 62 174.064 63.5856 174.064 65.5415V74.2772H32V65.5415Z" fill="#000C36"></path><path d="M46.0312 68.1386C46.0312 69.5802 44.8419 70.7695 43.4003 70.7695C41.9588 70.7695 40.7695 69.5802 40.7695 68.1386C40.7695 66.6971 41.9588 65.5078 43.4003 65.5078C44.8419 65.5078 46.0312 66.6971 46.0312 68.1386Z" fill="#F66058"></path><path d="M56.5546 68.1386C56.5546 69.5802 55.3653 70.7695 53.9238 70.7695C52.4822 70.7695 51.293 69.5802 51.293 68.1386C51.293 66.6971 52.4822 65.5078 53.9238 65.5078C55.4014 65.5078 56.5546 66.6971 56.5546 68.1386Z" fill="#F9BD2E"></path><path d="M67.0781 68.1386C67.0781 69.5802 65.8888 70.7695 64.4472 70.7695C63.0057 70.7695 61.8164 69.5802 61.8164 68.1386C61.8164 66.6971 63.0057 65.5078 64.4472 65.5078C65.8888 65.5078 67.0781 66.6971 67.0781 68.1386Z" fill="#3CC840"></path><path d="M32 73.6523H174.436V94.3703H32V73.6523Z" fill="#EDF1F6"></path><path d="M44.9492 103.438H161.488V151.348H44.9492V103.438Z" fill="#EDF1F6"></path><path fill-rule="evenodd" clip-rule="evenodd" d="M47.5391 83.6367C47.5391 81.6994 49.0467 80.1289 50.9065 80.1289H155.108C156.968 80.1289 158.476 81.6994 158.476 83.6367C158.476 85.574 156.968 87.1444 155.108 87.1444L50.9065 87.1444C49.0467 87.1444 47.5391 85.574 47.5391 83.6367Z" fill="white"></path><circle cx="162" cy="136" r="36" fill="#3D7FFC"></circle><path d="M177.094 137.879L181.403 141.151C181.609 141.291 181.753 141.505 181.807 141.748C181.86 141.991 181.818 142.246 181.69 142.459L177.574 149.38C177.53 149.482 177.467 149.575 177.387 149.652C177.307 149.73 177.213 149.792 177.11 149.833C177.006 149.874 176.895 149.894 176.784 149.893C176.673 149.891 176.563 149.868 176.46 149.824C176.414 149.804 176.37 149.78 176.328 149.752L171.25 147.789C170.171 148.56 169.015 149.218 167.802 149.752L167.037 154.986C166.974 155.548 166.621 155.828 165.984 155.828H157.845C157.595 155.849 157.346 155.774 157.151 155.617C156.955 155.46 156.826 155.234 156.792 154.986L156.027 149.75C154.8 149.244 153.641 148.585 152.579 147.787L147.501 149.75C147.285 149.859 147.036 149.881 146.804 149.812C146.573 149.742 146.377 149.587 146.256 149.378L142.14 142.459C142.011 142.245 141.969 141.991 142.023 141.747C142.076 141.504 142.221 141.29 142.427 141.15L146.735 137.879C146.671 137.133 146.636 136.477 146.636 135.916C146.636 135.355 146.667 134.702 146.735 133.953L142.427 130.681C142.221 130.541 142.076 130.328 142.023 130.084C141.969 129.841 142.011 129.586 142.14 129.373L146.255 122.453C146.355 122.243 146.535 122.081 146.754 122.004C146.973 121.926 147.214 121.939 147.424 122.038C147.451 122.051 147.476 122.065 147.501 122.08L152.58 124.043C153.659 123.273 154.814 122.615 156.028 122.08L156.792 116.85C156.825 116.601 156.953 116.374 157.149 116.216C157.345 116.059 157.594 115.983 157.845 116.003H165.984C166.622 116.003 166.974 116.284 167.038 116.846L167.803 122.08C169.03 122.588 170.188 123.247 171.251 124.043L176.329 122.08C176.545 121.972 176.794 121.95 177.025 122.019C177.257 122.088 177.453 122.243 177.574 122.453L181.689 129.373C181.818 129.586 181.86 129.841 181.806 130.084C181.753 130.328 181.608 130.541 181.402 130.681L177.094 133.953C177.349 135.249 177.349 136.583 177.094 137.879ZM157.709 140.137C158.686 141.1 159.965 141.695 161.33 141.821C162.695 141.947 164.062 141.596 165.198 140.828C166.333 140.06 167.168 138.923 167.56 137.609C167.952 136.295 167.877 134.886 167.347 133.622C166.818 132.357 165.866 131.315 164.655 130.673C163.444 130.03 162.048 129.827 160.704 130.097C159.36 130.368 158.151 131.096 157.283 132.157C156.415 133.218 155.942 134.547 155.943 135.918C155.933 136.705 156.084 137.485 156.387 138.211C156.691 138.937 157.14 139.593 157.707 140.139L157.709 140.137Z" fill="white"></path><defs><filter id="filter0_d_23673_115556" x="18" y="49" width="170.436" height="127.887" filterUnits="userSpaceOnUse" color-interpolation-filters="sRGB"><feFlood flood-opacity="0" result="BackgroundImageFix"></feFlood><feColorMatrix in="SourceAlpha" type="matrix" values="0 0 0 0 0 0 0 0 0 0 0 0 0 0 0 0 0 0 127 0" result="hardAlpha"></feColorMatrix><feOffset dy="1"></feOffset><feGaussianBlur stdDeviation="7"></feGaussianBlur><feComposite in2="hardAlpha" operator="out"></feComposite><feColorMatrix type="matrix" values="0 0 0 0 0.0354167 0 0 0 0 0.105426 0 0 0 0 0.2125 0 0 0 0.04 0"></feColorMatrix><feBlend mode="normal" in2="BackgroundImageFix" result="effect1_dropShadow_23673_115556"></feBlend><feBlend mode="normal" in="SourceGraphic" in2="effect1_dropShadow_23673_115556" result="shape"></feBlend></filter></defs></svg>