<svg xmlns="http://www.w3.org/2000/svg" width="202" height="202" viewBox="0 0 202 202" fill="none"><circle cx="101" cy="105" r="80" fill="#F5F8FF"></circle><g filter="url(#filter0_d_14918_41615)"><path d="M27.3086 48.2495C27.3086 46.4333 28.7809 44.9609 30.5971 44.9609H166.456C168.272 44.9609 169.744 46.4333 169.744 48.2495V141.56C169.744 143.376 168.272 144.848 166.456 144.848H30.5971C28.7809 144.848 27.3086 143.376 27.3086 141.56V48.2495Z" fill="white"></path></g><path d="M27.3086 48.5024C27.3086 46.5465 28.7775 44.9609 30.5895 44.9609H166.092C167.904 44.9609 169.373 46.5465 169.373 48.5024V57.2381H27.3086V48.5024Z" fill="#000C36"></path><path d="M41.3398 51.0996C41.3398 52.5411 40.1505 53.7304 38.7089 53.7304C37.2674 53.7304 36.0781 52.5411 36.0781 51.0996C36.0781 49.658 37.2674 48.4688 38.7089 48.4688C40.1505 48.4688 41.3398 49.658 41.3398 51.0996Z" fill="#F66058"></path><path d="M51.8632 51.0996C51.8632 52.5411 50.6739 53.7304 49.2324 53.7304C47.7908 53.7304 46.6016 52.5411 46.6016 51.0996C46.6016 49.658 47.7908 48.4688 49.2324 48.4688C50.71 48.4688 51.8632 49.658 51.8632 51.0996Z" fill="#F9BD2E"></path><path d="M62.3866 51.0996C62.3866 52.5411 61.1974 53.7304 59.7558 53.7304C58.3143 53.7304 57.125 52.5411 57.125 51.0996C57.125 49.658 58.3143 48.4688 59.7558 48.4688C61.1974 48.4688 62.3866 49.658 62.3866 51.0996Z" fill="#3CC840"></path><path d="M27.3086 56.6133H169.744V77.3312H27.3086V56.6133Z" fill="#EDF1F6"></path><path d="M40.2578 86.3984H156.796V134.309H40.2578V86.3984Z" fill="#EDF1F6"></path><path fill-rule="evenodd" clip-rule="evenodd" d="M42.8477 66.5976C42.8477 64.6603 44.3553 63.0898 46.2151 63.0898H150.417C152.277 63.0898 153.784 64.6603 153.784 66.5976C153.784 68.5349 152.277 70.1054 150.417 70.1054L46.2151 70.1054C44.3553 70.1054 42.8477 68.5349 42.8477 66.5976Z" fill="white"></path><path d="M146.62 90.2812L181.764 97.3747L181.822 134.193C181.881 158.466 166.476 171.01 146.738 178.222C127 171.128 111.594 158.582 111.535 134.31L111.477 97.4922L146.62 90.2812Z" fill="#3D7FFC"></path><path d="M176.013 134.258L176.013 134.259C176.038 144.628 172.773 152.398 167.454 158.358C162.209 164.234 154.889 168.436 146.51 171.556C138.135 168.486 130.815 164.309 125.559 158.446C120.227 152.498 116.936 144.726 116.911 134.355L116.861 103.055L146.413 96.9917L175.963 102.956L176.013 134.258Z" fill="#3D7FFC" stroke="#9FC0FF" stroke-width="3"></path><path d="M136.078 132.436L142.453 138.191L156.796 125.242" stroke="white" stroke-width="3" stroke-linecap="round"></path><defs><filter id="filter0_d_14918_41615" x="13.3086" y="31.9609" width="170.436" height="127.887" filterUnits="userSpaceOnUse" color-interpolation-filters="sRGB"><feFlood flood-opacity="0" result="BackgroundImageFix"></feFlood><feColorMatrix in="SourceAlpha" type="matrix" values="0 0 0 0 0 0 0 0 0 0 0 0 0 0 0 0 0 0 127 0" result="hardAlpha"></feColorMatrix><feOffset dy="1"></feOffset><feGaussianBlur stdDeviation="7"></feGaussianBlur><feComposite in2="hardAlpha" operator="out"></feComposite><feColorMatrix type="matrix" values="0 0 0 0 0.0354167 0 0 0 0 0.105426 0 0 0 0 0.2125 0 0 0 0.04 0"></feColorMatrix><feBlend mode="normal" in2="BackgroundImageFix" result="effect1_dropShadow_14918_41615"></feBlend><feBlend mode="normal" in="SourceGraphic" in2="effect1_dropShadow_14918_41615" result="shape"></feBlend></filter></defs></svg>